<svg width="31" height="30" viewBox="0 0 31 30" fill="none" xmlns="http://www.w3.org/2000/svg">
<g id="Layer_x0020_1">
<path id="Vector" d="M10.1599 11.1719L12.8005 11.1719L12.8005 7.81252C12.8005 7.80226 12.8012 7.79215 12.8025 7.78224C12.8569 6.74982 13.0656 5.81676 13.5465 5.13181C14.0454 4.42134 14.8211 3.98437 15.9937 3.98437L20.2225 3.98437C20.3519 3.98437 20.4568 4.08933 20.4568 4.21876L20.4568 7.60485C20.4568 7.73428 20.3519 7.83923 20.2225 7.83923L18.5532 7.83923C18.1226 7.83923 17.7995 7.90518 17.5899 8.07825C17.5854 8.08199 17.5808 8.08588 17.5761 8.08924C17.3818 8.25775 17.2723 8.54097 17.2485 8.97896L17.2488 11.1719L20.2225 11.1719C20.3519 11.1719 20.4568 11.2769 20.4568 11.4063L20.4568 15C20.4568 15.1295 20.3519 15.2344 20.2225 15.2344L17.2488 15.2344L17.2488 25.7813C17.2488 25.9107 17.1439 26.0157 17.0144 26.0157L13.0349 26.0157C12.9055 26.0157 12.8005 25.9107 12.8005 25.7813L12.8005 15.2344L10.1599 15.2344C10.0305 15.2344 9.92554 15.1295 9.92554 15L9.92554 11.4063C9.92554 11.2768 10.0305 11.1719 10.1599 11.1719ZM13.0349 11.6407L10.3943 11.6407L10.3943 14.7656L13.0349 14.7656C13.1643 14.7656 13.2693 14.8706 13.2693 15L13.2693 25.5469L16.7801 25.5469L16.7801 15C16.7801 14.8706 16.885 14.7656 17.0144 14.7656L19.9881 14.7656L19.9881 11.6407L17.0144 11.6407C16.885 11.6407 16.7801 11.5357 16.7801 11.4063L16.7801 8.97913C16.7801 8.97518 16.7802 8.97105 16.7804 8.96707C16.8102 8.3824 16.976 7.98887 17.2745 7.73262C17.2799 7.72726 17.2855 7.7221 17.2915 7.71717C17.5958 7.46597 18.0156 7.37047 18.5531 7.37047L19.9881 7.37047L19.9881 4.45314L15.9937 4.45314C14.9943 4.45314 14.3413 4.8141 13.9292 5.40099C13.5046 6.00571 13.3191 6.85608 13.2692 7.8074L13.2693 7.81252L13.2693 11.4063C13.2693 11.5357 13.1643 11.6407 13.0349 11.6407Z" fill="#212121"/>
</g>
</svg>
