<svg width="21" height="23" viewBox="0 0 21 23" fill="none" xmlns="http://www.w3.org/2000/svg">
<g id="Layer_x0020_1">
<g id="_264859024">
<path id="_264859912" d="M20.5368 22.0317L16.2202 22.0317L15.9858 22.0317L15.9858 21.7973L15.9858 12.4431C15.9858 11.9403 15.9183 11.5191 15.7076 11.2375C15.5055 10.9674 15.1506 10.8096 14.563 10.8096C12.6611 10.8096 12.1855 12.2512 12.1242 12.4702L12.1242 21.7973L12.1242 22.0317L11.8898 22.0317L7.57398 22.0317L7.3396 22.0317L7.3396 21.7973L7.3396 6.65626L7.3396 6.42188L7.57398 6.42187L11.8898 6.42187L12.1242 6.42187L12.1242 6.65626L12.1242 7.65767C12.4443 7.44973 12.8698 7.20856 13.3884 6.99555C14.147 6.68404 15.1039 6.43259 16.2202 6.43259C17.1106 6.43259 18.5758 6.75029 19.6068 8.16014C20.2843 9.08656 20.7712 10.4833 20.7712 12.5696L20.7712 21.7973L20.7712 22.0317L20.5368 22.0317ZM16.4546 21.5629L20.3024 21.5629L20.3024 12.5696C20.3024 10.5953 19.8539 9.29019 19.2296 8.43662C18.3134 7.18369 17.0114 6.90135 16.2202 6.90135C15.1714 6.90135 14.2752 7.13644 13.5661 7.42767C12.8554 7.71955 12.3313 8.06765 12.029 8.29276L11.6554 8.57096L11.6554 8.10507L11.6554 6.89064L7.80836 6.89064L7.80836 21.5629L11.6554 21.5629L11.6554 12.4431L11.6628 12.3882C11.6642 12.3824 12.1376 10.3408 14.563 10.3408C15.3162 10.3408 15.7899 10.5681 16.0812 10.9574C16.3639 11.3353 16.4546 11.8481 16.4546 12.4431L16.4546 21.5629Z" fill="#212121"/>
<path id="_264859816" d="M2.58956 4.53407C1.9654 4.53407 1.39942 4.27984 0.989553 3.86779C0.580827 3.45692 0.327881 2.88963 0.327881 2.26168C0.327881 1.6374 0.581242 1.07202 0.99052 0.662744C1.39994 0.253325 1.96548 -3.80333e-10 2.58956 -5.25275e-10C3.21393 0.00598624 3.78052 0.262444 4.18867 0.6706C4.59797 1.07991 4.85121 1.64266 4.85121 2.26168C4.85121 2.88972 4.59838 3.45708 4.18966 3.86799C3.7799 4.27992 3.214 4.53407 2.58956 4.53407ZM1.32098 3.5382C1.64524 3.86418 2.09394 4.06531 2.58956 4.06531C3.08546 4.06531 3.53408 3.86426 3.85824 3.53839C4.1821 3.2128 4.38245 2.76193 4.38245 2.26167C4.38245 1.77205 4.1817 1.32649 3.85725 1.00202C3.53205 0.67682 3.08379 0.473116 2.58956 0.467873C2.09484 0.467873 1.64652 0.669589 1.32194 0.994162C0.997491 1.31861 0.796642 1.76679 0.796642 2.26167C0.796642 2.76182 0.997082 3.21261 1.32098 3.5382Z" fill="#212121"/>
<path id="_264858736" d="M4.75594 22.0317L0.425543 22.0317L0.191162 22.0317L0.191162 21.7973L0.191162 6.65626L0.191162 6.42188L0.425543 6.42187L4.75594 6.42187L4.99032 6.42187L4.99032 6.65626L4.99032 21.7973L4.99032 22.0317L4.75594 22.0317ZM0.659926 21.5629L4.52156 21.5629L4.52156 6.89064L0.659926 6.89064L0.659926 21.5629Z" fill="#212121"/>
</g>
</g>
</svg>
