<svg width="31" height="30" viewBox="0 0 31 30" fill="none" xmlns="http://www.w3.org/2000/svg">
<g id="Frame">
<g id="Group">
<path id="Vector" fill-rule="evenodd" clip-rule="evenodd" d="M10.9038 6.42871L19.4752 6.42871C21.0532 6.42871 22.3323 7.7079 22.3323 9.28585L22.3323 22.143C22.3323 23.721 21.0532 25.0001 19.4752 25.0001L10.9038 25.0001C9.32582 25.0001 8.04663 23.721 8.04663 22.143L8.04663 9.28585C8.04663 7.7079 9.32582 6.42871 10.9038 6.42871Z" stroke="#D7206A" stroke-linecap="round" stroke-linejoin="round"/>
<path id="Vector_2" d="M8.04663 13.5713L22.3323 13.5713" stroke="#D7206A" stroke-linecap="round" stroke-linejoin="round"/>
<g id="Group_2">
<path id="Vector_3" d="M10.9049 17.8571C11.6939 17.8571 12.3335 17.2175 12.3335 16.4286C12.3335 15.6396 11.6939 15 10.9049 15C10.1159 15 9.47632 15.6396 9.47632 16.4286C9.47632 17.2175 10.1159 17.8571 10.9049 17.8571Z" fill="#D7206A"/>
<path id="Vector_4" d="M13.7604 17.8571C14.5493 17.8571 15.1889 17.2175 15.1889 16.4286C15.1889 15.6396 14.5493 15 13.7604 15C12.9714 15 12.3318 15.6396 12.3318 16.4286C12.3318 17.2175 12.9714 17.8571 13.7604 17.8571Z" fill="#D7206A"/>
<path id="Vector_5" d="M16.6197 17.8571C17.4087 17.8571 18.0483 17.2175 18.0483 16.4286C18.0483 15.6396 17.4087 15 16.6197 15C15.8308 15 15.1912 15.6396 15.1912 16.4286C15.1912 17.2175 15.8308 17.8571 16.6197 17.8571Z" fill="#D7206A"/>
<path id="Vector_6" d="M19.4752 17.8571C20.2642 17.8571 20.9038 17.2175 20.9038 16.4286C20.9038 15.6396 20.2642 15 19.4752 15C18.6862 15 18.0466 15.6396 18.0466 16.4286C18.0466 17.2175 18.6862 17.8571 19.4752 17.8571Z" fill="#D7206A"/>
<path id="Vector_7" d="M10.9049 20.7146C11.6939 20.7146 12.3335 20.075 12.3335 19.286C12.3335 18.497 11.6939 17.8574 10.9049 17.8574C10.1159 17.8574 9.47632 18.497 9.47632 19.286C9.47632 20.075 10.1159 20.7146 10.9049 20.7146Z" fill="#D7206A"/>
<path id="Vector_8" d="M13.7604 20.7146C14.5493 20.7146 15.1889 20.075 15.1889 19.286C15.1889 18.497 14.5493 17.8574 13.7604 17.8574C12.9714 17.8574 12.3318 18.497 12.3318 19.286C12.3318 20.075 12.9714 20.7146 13.7604 20.7146Z" fill="#D7206A"/>
<path id="Vector_9" d="M16.6197 20.7146C17.4087 20.7146 18.0483 20.075 18.0483 19.286C18.0483 18.497 17.4087 17.8574 16.6197 17.8574C15.8308 17.8574 15.1912 18.497 15.1912 19.286C15.1912 20.075 15.8308 20.7146 16.6197 20.7146Z" fill="#D7206A"/>
<path id="Vector_10" d="M19.4752 20.7146C20.2642 20.7146 20.9038 20.075 20.9038 19.286C20.9038 18.497 20.2642 17.8574 19.4752 17.8574C18.6862 17.8574 18.0466 18.497 18.0466 19.286C18.0466 20.075 18.6862 20.7146 19.4752 20.7146Z" fill="#D7206A"/>
<path id="Vector_11" d="M10.9049 23.571C11.6939 23.571 12.3335 22.9314 12.3335 22.1424C12.3335 21.3535 11.6939 20.7139 10.9049 20.7139C10.1159 20.7139 9.47632 21.3535 9.47632 22.1424C9.47632 22.9314 10.1159 23.571 10.9049 23.571Z" fill="#D7206A"/>
<path id="Vector_12" d="M13.7604 23.571C14.5493 23.571 15.1889 22.9314 15.1889 22.1424C15.1889 21.3535 14.5493 20.7139 13.7604 20.7139C12.9714 20.7139 12.3318 21.3535 12.3318 22.1424C12.3318 22.9314 12.9714 23.571 13.7604 23.571Z" fill="#D7206A"/>
<path id="Vector_13" d="M16.6197 23.571C17.4087 23.571 18.0483 22.9314 18.0483 22.1424C18.0483 21.3535 17.4087 20.7139 16.6197 20.7139C15.8308 20.7139 15.1912 21.3535 15.1912 22.1424C15.1912 22.9314 15.8308 23.571 16.6197 23.571Z" fill="#D7206A"/>
<path id="Vector_14" d="M19.4752 23.571C20.2642 23.571 20.9038 22.9314 20.9038 22.1424C20.9038 21.3535 20.2642 20.7139 19.4752 20.7139C18.6862 20.7139 18.0466 21.3535 18.0466 22.1424C18.0466 22.9314 18.6862 23.571 19.4752 23.571Z" fill="#D7206A"/>
</g>
</g>
</g>
</svg>
