<svg width="31" height="30" viewBox="0 0 31 30" fill="none" xmlns="http://www.w3.org/2000/svg">
<g id="Frame">
<path id="Vector" d="M25.1912 6.42871C24.8096 5.09473 24.3334 4.14235 23.7626 3.57157C23.1918 3.00079 22.2394 2.5246 20.9054 2.143M5.31747 6.42871C5.61487 5.09473 6.04896 4.14235 6.61973 3.57157C7.19051 3.00079 8.185 2.5246 9.60318 2.143M18.7626 24.2859C17.8102 25.7144 16.6197 26.4287 15.1912 26.4287C13.7626 26.4287 12.5721 25.7144 11.6197 24.2859M22.4548 22.143L7.92756 22.143C6.62518 22.143 5.56939 21.0872 5.56939 19.7848C5.56939 19.3574 5.68555 18.9381 5.90545 18.5716C7.30762 16.2346 8.04831 13.5605 8.04831 10.8352L8.04831 9.28585C8.04831 6.12994 10.6067 3.57157 13.7626 3.57157L16.6197 3.57157C19.7756 3.57157 22.334 6.12994 22.334 9.28585L22.334 10.8352C22.334 13.5605 23.0747 16.2346 24.4769 18.5716C25.1469 19.6883 24.7848 21.1369 23.668 21.8069C23.3015 22.0268 22.8822 22.143 22.4548 22.143Z" stroke="#D7206A" stroke-linecap="round" stroke-linejoin="round"/>
</g>
</svg>
