<svg width="31" height="30" viewBox="0 0 31 30" fill="none" xmlns="http://www.w3.org/2000/svg">
<g id="Frame">
<g id="Group">
<path id="Vector" fill-rule="evenodd" clip-rule="evenodd" d="M25.1934 20.7141L25.1934 6.42843C25.1934 4.85048 23.9142 3.57129 22.3363 3.57129L10.9077 3.57129C9.32972 3.57129 8.05054 4.85048 8.05054 6.42843L8.05054 20.7141C8.05054 22.2921 9.32972 23.5713 10.9077 23.5713L22.3363 23.5713C23.9142 23.5713 25.1934 22.2921 25.1934 20.7141Z" stroke="#D7206A" stroke-linecap="round" stroke-linejoin="round"/>
<path id="Vector_2" d="M7.77095 7.0498L4.90782 8.0919C3.42503 8.63159 2.66049 10.2711 3.20018 11.7539L8.08619 25.1781C8.62588 26.6609 10.2654 27.4254 11.7482 26.8858L19.7031 23.7456" stroke="#D7206A" stroke-linecap="round" stroke-linejoin="round"/>
<path id="Vector_3" d="M12.3357 10.7139L19.4786 10.7139" stroke="#D7206A" stroke-linecap="round" stroke-linejoin="round"/>
<path id="Vector_4" d="M12.3357 13.5713L20.9071 13.5713" stroke="#D7206A" stroke-linecap="round" stroke-linejoin="round"/>
<path id="Vector_5" d="M12.3357 16.4287L16.6214 16.4287" stroke="#D7206A" stroke-linecap="round" stroke-linejoin="round"/>
</g>
</g>
</svg>
