<svg width="31" height="30" viewBox="0 0 31 30" fill="none" xmlns="http://www.w3.org/2000/svg">
<g id="Frame">
<g id="Group">
<path id="Vector" d="M12.3357 14.9999C14.7026 14.9999 16.6214 13.0811 16.6214 10.7141L16.6214 7.857C16.6214 5.49007 14.7026 3.57129 12.3357 3.57129C9.96876 3.57129 8.04998 5.49007 8.04998 7.857L8.04998 10.7141C8.04998 13.0811 9.96876 14.9999 12.3357 14.9999ZM12.3357 14.9999C17.0696 14.9999 22.3357 17.979 22.3357 22.531L22.3357 23.5713C22.3357 24.3603 21.6961 24.9999 20.9071 24.9999L3.76426 24.9999C2.97529 24.9999 2.33569 24.3603 2.33569 23.5713L2.33569 22.531C2.33569 17.979 7.60182 14.9999 12.3357 14.9999Z" stroke="#D7206A" stroke-linecap="round" stroke-linejoin="round"/>
<path id="Vector_2" fill-rule="evenodd" clip-rule="evenodd" d="M18.079 3.8252C19.7287 4.4215 20.9077 6.0015 20.9077 7.85687L20.9077 9.28544C20.9077 11.1384 19.6969 12.9731 18.0505 13.5712C19.0138 12.2586 19.4947 10.5916 19.4933 8.56999C19.492 6.54841 19.0205 4.96682 18.079 3.8252ZM25.1934 24.9997L26.622 24.9997C27.4109 24.9997 28.0505 24.3601 28.0505 23.5712C28.0505 23.2244 28.0505 22.8777 28.0505 22.5309C28.0505 19.4311 25.6085 17.0606 22.5554 15.8637C22.5554 15.8637 26.622 19.2854 25.1934 24.9997Z" fill="#D7206A" stroke="#D7206A" stroke-linecap="round" stroke-linejoin="round"/>
</g>
</g>
</svg>
