<svg width="31" height="30" viewBox="0 0 31 30" fill="none" xmlns="http://www.w3.org/2000/svg">
<g id="Frame">
<g id="Group">
<path id="Vector" fill-rule="evenodd" clip-rule="evenodd" d="M13.762 7.85645C11.3951 7.85645 9.47632 9.77522 9.47632 12.1422L9.47632 19.285C9.47632 21.652 11.3951 23.5707 13.762 23.5707L17.2877 23.5693L19.7382 27.0405C19.9724 27.3721 20.3348 27.586 20.7325 27.6343L20.9049 27.6447C21.6375 27.6447 22.2413 27.0932 22.3238 26.3828L22.3335 26.2162L22.3349 23.5693L23.762 23.5707C26.129 23.5707 28.0477 21.652 28.0477 19.285L28.0477 12.1422C28.0477 9.77522 26.129 7.85645 23.762 7.85645L13.762 7.85645Z" stroke="#D7206A" stroke-linecap="round" stroke-linejoin="round"/>
<path id="Vector_2" d="M9.47618 19.2854L6.61903 22.1426L6.61903 16.4283L5.32438 16.4283C3.75947 16.4283 2.48575 15.1694 2.46744 13.6046L2.36714 5.03315C2.34868 3.4553 3.61281 2.16124 5.19066 2.14277C5.2018 2.14264 5.21295 2.14258 5.22409 2.14258L18.0476 2.14258C19.6256 2.14258 20.9047 3.42176 20.9047 4.99972L20.9047 7.85686" stroke="#D7206A" stroke-linecap="round" stroke-linejoin="round"/>
</g>
</g>
</svg>
