<svg width="23" height="18" viewBox="0 0 23 18" fill="none" xmlns="http://www.w3.org/2000/svg">
<g id="Layer_x0020_1">
<path id="Vector" d="M21.3223 2.81701C21.1512 2.87532 20.9778 2.92876 20.8023 2.97705C20.369 3.09631 19.9254 3.1844 19.4754 3.23773C19.3469 3.25295 19.2304 3.16131 19.2151 3.03278C19.2032 2.93165 19.2575 2.83795 19.3438 2.79516C19.7717 2.53664 20.1492 2.20332 20.4595 1.81305C20.6407 1.58518 20.7987 1.33818 20.9303 1.0756C20.6653 1.20773 20.3931 1.32733 20.1143 1.43355C19.6372 1.61531 19.1393 1.75843 18.6235 1.85876C18.5359 1.8758 18.4502 1.842 18.3974 1.77741C18.0119 1.36924 17.5428 1.03813 17.0185 0.811302C16.5098 0.591212 15.9466 0.468753 15.3549 0.468753C14.1992 0.468753 13.1523 0.937791 12.3943 1.69573C11.6364 2.45366 11.1674 3.50059 11.1674 4.65632C11.1674 4.82341 11.1769 4.98549 11.1949 5.14276C11.2134 5.30454 11.2402 5.46086 11.2741 5.61206C11.3025 5.73834 11.2238 5.86364 11.0975 5.89199C11.0698 5.89822 11.0421 5.89922 11.0155 5.89573C9.17939 5.8005 7.44736 5.32129 5.89717 4.5359C4.39394 3.77429 3.06117 2.72462 1.96967 1.45801C1.86088 1.68462 1.77195 1.9235 1.70497 2.17202C1.61094 2.52098 1.56096 2.88883 1.56096 3.26828C1.56096 3.9821 1.73947 4.65441 2.05365 5.24153C2.37978 5.85095 2.85231 6.37022 3.42336 6.75036C3.53109 6.8221 3.56109 6.96751 3.48936 7.07525C3.43889 7.15106 3.35187 7.18798 3.2672 7.17823C2.90129 7.16705 2.54745 7.11132 2.20929 7.01791C1.97896 6.95428 1.75612 6.87341 1.54182 6.77746C1.61025 7.65491 1.94868 8.45645 2.47345 9.09911C3.07519 9.83602 3.92143 10.3647 4.88613 10.5602C5.01299 10.5859 5.09578 10.7088 5.07007 10.8356C5.05057 10.9319 4.97465 11.0023 4.88375 11.0194C4.69546 11.0687 4.49879 11.1067 4.2963 11.1328C4.08861 11.1596 3.88114 11.1734 3.67674 11.1734C3.53438 11.1734 3.3875 11.1664 3.23519 11.1524L3.1976 11.1488C3.4916 11.8375 3.96427 12.4313 4.55743 12.8724C5.23582 13.3769 6.0715 13.6818 6.97737 13.7008C7.10678 13.7035 7.20981 13.8097 7.20711 13.9391C7.20543 14.0199 7.1631 14.0902 7.10008 14.131C6.31263 14.744 5.42312 15.2305 4.46225 15.5606C3.5265 15.8822 2.52247 16.0566 1.47842 16.0566C1.44748 16.0566 1.41639 16.0564 1.38515 16.0561C2.12888 16.455 2.91678 16.7799 3.73975 17.0208C4.83797 17.3424 6.00142 17.5149 7.20865 17.5149C10.8793 17.5149 13.784 16.118 15.8504 14.0519C18.2809 11.6218 19.5554 8.26741 19.5554 5.17009C19.5554 5.1652 19.5556 5.16035 19.5559 5.15554L19.543 4.60256C19.5409 4.51505 19.5863 4.43761 19.6564 4.39572C20.0727 4.09487 20.4612 3.75766 20.8174 3.38866C20.9937 3.2061 21.1621 3.01535 21.3223 2.81701ZM20.6796 2.52663C21.0913 2.41334 21.49 2.27076 21.8723 2.10233C21.9469 2.06011 22.0419 2.06042 22.1181 2.11117C22.2257 2.18295 22.2548 2.32849 22.1831 2.43617C21.8801 2.89068 21.5355 3.31789 21.1543 3.71275C20.8033 4.07632 20.4215 4.41133 20.0127 4.71375L20.0227 5.1444C20.0237 5.15282 20.0241 5.16141 20.0241 5.17009C20.0241 8.38355 18.7024 11.8631 16.1818 14.3834C14.0335 16.5313 11.0169 17.9837 7.20865 17.9837C5.96001 17.9837 4.75279 17.8041 3.60975 17.4694C2.43165 17.1245 1.32452 16.6154 0.312961 15.9691C0.232181 15.9248 0.181817 15.8348 0.192613 15.7376C0.206887 15.609 0.322771 15.5162 0.451407 15.5305C0.623243 15.5496 0.793246 15.5644 0.962123 15.5739C1.12649 15.5831 1.2982 15.5878 1.47841 15.5878C2.47004 15.5878 3.42289 15.4225 4.31027 15.1175C5.03264 14.8693 5.71132 14.5293 6.33202 14.1112C5.57083 13.9911 4.87089 13.6879 4.27911 13.2478C3.51319 12.6782 2.92797 11.8794 2.62487 10.952C2.60774 10.9112 2.60199 10.865 2.61082 10.8182C2.63481 10.691 2.75739 10.6073 2.88459 10.6313C3.01743 10.6564 3.14806 10.6754 3.2773 10.6873C3.40299 10.6989 3.53595 10.7046 3.67673 10.7046C3.72319 10.7046 3.7693 10.7039 3.81502 10.7026C3.1498 10.4033 2.56694 9.95234 2.11091 9.39389C1.45453 8.59008 1.0602 7.564 1.0602 6.44687L1.0602 6.39407C1.05998 6.35537 1.06934 6.31607 1.08936 6.27976C1.15185 6.16642 1.29441 6.12521 1.40775 6.1877C1.69935 6.34846 2.0093 6.47786 2.33379 6.5675C2.39201 6.58359 2.45073 6.5984 2.5099 6.61196C2.16476 6.27767 1.87086 5.88954 1.64167 5.46127C1.29128 4.80649 1.0922 4.05917 1.0922 3.26829C1.0922 2.8486 1.14791 2.44016 1.25272 2.0512C1.3582 1.65975 1.51426 1.28765 1.71402 0.943289C1.72847 0.912389 1.74994 0.88417 1.77814 0.861159C1.87844 0.779341 2.02609 0.794324 2.1079 0.89462C3.19752 2.23044 4.55841 3.33347 6.10773 4.11843C7.52301 4.83546 9.09487 5.28765 10.7596 5.41127C10.748 5.33961 10.7381 5.2678 10.7298 5.19588C10.7094 5.01764 10.6986 4.83776 10.6986 4.65632C10.6986 3.3712 11.2202 2.20709 12.0629 1.36431C12.9057 0.52153 14.0698 -3.22332e-09 15.3549 -3.52179e-09C16.009 -3.67368e-09 16.6349 0.136871 17.2035 0.382861C17.7526 0.62039 18.2461 0.95927 18.658 1.37443C19.1016 1.28141 19.5322 1.15422 19.9477 0.995934C20.4071 0.820914 20.8468 0.608228 21.2639 0.361978C21.3216 0.32305 21.396 0.310126 21.4673 0.333241C21.5905 0.373138 21.6579 0.505337 21.618 0.62847C21.4421 1.1712 21.1712 1.66964 20.8257 2.1042C20.6834 2.28315 20.5282 2.45141 20.3614 2.60757C20.4685 2.58255 20.5746 2.55554 20.6796 2.52663Z" fill="#212121"/>
</g>
</svg>
