<svg width="23" height="16" viewBox="0 0 23 16" fill="none" xmlns="http://www.w3.org/2000/svg">
<g id="Layer_x0020_1">
<g id="_264859216">
<path id="_264859240" d="M8.6598 10.7092C9.69063 10.1751 10.7179 9.64272 11.7451 9.11016C12.7532 8.58751 13.7614 8.06465 14.773 7.54C13.6521 6.95473 12.5374 6.37306 11.4238 5.79201C10.5027 5.31135 9.58226 4.83103 8.6598 4.34948L8.6598 10.7092ZM11.9593 9.52581C10.8187 10.1172 9.67807 10.7083 8.53253 11.3017L8.19104 11.4786L8.19104 11.0939L8.19104 3.96381L8.19104 3.57812L8.53345 3.7569C9.57061 4.29841 10.6048 4.83806 11.6399 5.37819C12.8851 6.02796 14.1318 6.67852 15.387 7.33402L15.785 7.54186L15.3861 7.74875C14.2406 8.34291 13.0999 8.93448 11.9593 9.52581Z" fill="#212121"/>
<path id="_264859096" d="M21.8391 12.8968C21.6953 13.5171 21.3702 14.0565 20.9283 14.458C20.4838 14.8617 19.9212 15.1265 19.3058 15.1946C17.9654 15.3445 16.6137 15.42 15.2576 15.4578C13.9101 15.4954 12.557 15.4954 11.2061 15.4946C9.85589 15.4954 8.50272 15.4954 7.15508 15.4578C5.79874 15.42 4.44664 15.3445 3.10616 15.1946C2.49061 15.1265 1.92788 14.8616 1.48361 14.4578C1.04192 14.0563 0.717225 13.5169 0.574402 12.8968C0.382635 12.0658 0.286855 11.199 0.239068 10.3271C0.191057 9.45063 0.19104 8.5869 0.19104 7.74841C0.19104 6.90881 0.192268 6.04395 0.241439 5.168C0.290419 4.29576 0.387376 3.42887 0.579039 2.59801C0.721014 1.97818 1.04555 1.43896 1.48727 1.03747C1.93181 0.633378 2.49509 0.368356 3.11081 0.300223C4.45113 0.15029 5.80322 0.0748216 7.15956 0.0369833C8.50721 -0.000595126 9.86039 -0.000594929 11.2104 0.000183606C12.5607 -0.000594952 13.9139 -0.000595148 15.2614 0.0369833C16.6176 0.0748213 17.9693 0.15029 19.3089 0.300223C19.9252 0.368321 20.4887 0.633222 20.9336 1.03714C21.3758 1.43858 21.7009 1.9779 21.8437 2.59801C22.2214 4.24166 22.2214 6.02352 22.2214 7.70591L22.2223 7.74842C22.2224 8.59516 22.2211 9.46736 22.1737 10.3271C22.1258 11.1989 22.03 12.0658 21.8391 12.8968ZM20.6133 14.1119C20.9868 13.7726 21.2617 13.3167 21.3832 12.7924C21.5675 11.9901 21.6602 11.1491 21.7068 10.3015C21.7541 9.44175 21.7545 8.58249 21.7545 7.7484L21.7536 7.70589C21.7536 6.05094 21.7545 4.29812 21.3878 2.70236C21.2671 2.17825 20.9924 1.72242 20.6187 1.38319C20.2455 1.04443 19.7734 0.822315 19.2576 0.765309C17.9248 0.61612 16.5871 0.541239 15.2486 0.503903C13.9014 0.466342 12.5544 0.466342 11.2104 0.467103C9.86672 0.466342 8.51976 0.466342 7.17237 0.503903C5.83371 0.541239 4.49565 0.616137 3.16209 0.765309C2.64695 0.822317 2.17514 1.04455 1.80223 1.38352C1.42918 1.72261 1.155 2.17831 1.03497 2.70236C0.849826 3.50492 0.755983 4.34585 0.70837 5.19363C0.660982 6.03771 0.659806 6.90529 0.659806 7.7484C0.659806 8.59073 0.659805 9.45844 0.706 10.3015C0.752454 11.1491 0.845155 11.99 1.03033 12.7924C1.15106 13.3167 1.42542 13.7725 1.79856 14.1117C2.17121 14.4504 2.6425 14.6725 3.15744 14.7295C4.49115 14.8787 5.82921 14.9536 7.16788 14.9909C8.51526 15.0285 9.86222 15.0285 11.2061 15.0277C12.5507 15.0285 13.8976 15.0285 15.2448 14.9909C16.5833 14.9536 17.9209 14.8787 19.2545 14.7295C19.7693 14.6725 20.2405 14.4505 20.6133 14.1119Z" fill="#212121"/>
</g>
</g>
</svg>
