<svg width="21" height="21" viewBox="0 0 21 21" fill="none" xmlns="http://www.w3.org/2000/svg">
<path d="M18.4196 0.704242L2.7054 0.640095C2.13708 0.637775 1.59112 0.861313 1.18762 1.26153C0.784121 1.66175 0.556134 2.20587 0.553814 2.77419L0.489667 18.4883C0.487347 19.0567 0.710885 19.6026 1.1111 20.0061C1.51132 20.4096 2.05544 20.6376 2.62376 20.6399L18.3379 20.7041C18.9062 20.7064 19.4522 20.4829 19.8557 20.0826C20.2592 19.6824 20.4872 19.1383 20.4895 18.57L20.5536 2.85583C20.556 2.28751 20.3324 1.74155 19.9322 1.33805C19.532 0.93455 18.9879 0.706562 18.4196 0.704242ZM17.6319 14.423L16.9504 17.322C16.9158 17.4694 16.8322 17.6007 16.7134 17.6945C16.5945 17.7884 16.4474 17.8391 16.296 17.8386C9.15322 17.8094 3.37334 11.9951 3.40255 4.8394C3.40848 4.68945 3.46238 4.54536 3.55632 4.42833C3.65026 4.3113 3.77928 4.22751 3.9244 4.1893L6.8289 3.53151C6.87844 3.52124 6.92883 3.51562 6.97942 3.51471C7.10888 3.52177 7.2341 3.56337 7.34206 3.63517C7.45002 3.70697 7.5368 3.80636 7.59338 3.92302L8.9199 7.05346C8.95236 7.13785 8.97026 7.22714 8.97284 7.31752C8.96113 7.51571 8.87222 7.70141 8.72519 7.83482L7.02804 9.21183C8.04408 11.3883 9.78526 13.1437 11.9533 14.1775L13.3442 12.4917C13.4788 12.3457 13.6652 12.2583 13.8635 12.2482C13.9538 12.2515 14.043 12.2701 14.1271 12.3033L17.2466 13.6554C17.3628 13.7128 17.4616 13.8004 17.5325 13.9089C17.6034 14.0175 17.644 14.1431 17.6499 14.2726C17.6488 14.3232 17.6427 14.3736 17.6319 14.423Z" fill="#D7206A"/>
</svg>
