<svg width="21" height="21" viewBox="0 0 21 21" fill="none" xmlns="http://www.w3.org/2000/svg">
<path d="M10.5172 11.5833C13.6227 11.5959 16.1525 9.08672 16.1651 5.98128C16.1778 2.87583 13.6686 0.346039 10.5631 0.333362C7.45771 0.320686 4.92791 2.82991 4.91523 5.93535C4.90256 9.0408 7.41178 11.5706 10.5172 11.5833ZM15.5121 12.8537L13.3598 12.8449C12.4909 13.2398 11.5252 13.4624 10.5096 13.4583C9.49396 13.4541 8.53395 13.2236 7.66449 12.8216L5.51216 12.8128C2.75047 12.8016 0.50307 15.0307 0.491796 17.7924L0.489245 18.4174C0.485019 19.4525 1.32143 20.2958 2.35658 20.3L18.6064 20.3664C19.6416 20.3706 20.4849 19.5342 20.4891 18.499L20.4916 17.874C20.5029 15.1123 18.2738 12.8649 15.5121 12.8537Z" fill="#C7C7C7"/>
</svg>
