<svg width="21" height="19" viewBox="0 0 21 19" fill="none" xmlns="http://www.w3.org/2000/svg">
<path d="M12.1223 1.00087L19.6222 1.03149C20.14 1.0336 20.558 1.45504 20.5559 1.97281L20.5304 8.22276C20.5283 8.74053 20.1068 9.15853 19.589 9.15642L12.0891 9.12581C11.5713 9.12369 11.1533 8.70226 11.1554 8.18449L11.181 1.93454C11.1831 1.41677 11.6045 0.99876 12.1223 1.00087ZM8.99731 0.988117L1.49737 0.957501C0.979599 0.955388 0.558162 1.3734 0.556049 1.89117L0.530536 8.14111C0.528422 8.65888 0.946432 9.08032 1.4642 9.08243L8.96414 9.11305C9.48191 9.11516 9.90334 8.69715 9.90546 8.17938L9.93097 1.92944C9.93308 1.41167 9.51507 0.99023 8.99731 0.988117ZM0.517779 11.2661L0.492266 17.516C0.490152 18.0338 0.908162 18.4552 1.42593 18.4574L8.92587 18.488C9.44364 18.4901 9.86507 18.0721 9.86719 17.5543L9.8927 11.3044C9.89481 10.7866 9.4768 10.3652 8.95904 10.363L1.4591 10.3324C0.941329 10.3303 0.519893 10.7483 0.517779 11.2661ZM12.0508 18.5007L19.5508 18.5313C20.0685 18.5335 20.49 18.1154 20.4921 17.5977L20.5176 11.3477C20.5197 10.83 20.1017 10.4085 19.5839 10.4064L12.084 10.3758C11.5662 10.3737 11.1448 10.7917 11.1427 11.3095L11.1172 17.5594C11.1151 18.0772 11.5331 18.4986 12.0508 18.5007Z" fill="#C7C7C7"/>
</svg>
