<svg width="19" height="18" viewBox="0 0 19 18" fill="none" xmlns="http://www.w3.org/2000/svg">
<g id="Group 359">
<path id="Vector" d="M9.60943 0.369263C14.3836 0.388752 18.2362 4.19718 18.2171 8.87818C18.198 13.5592 14.3144 17.336 9.54025 17.3165C4.7661 17.2971 0.913464 13.4886 0.932573 8.80763C0.951681 4.12662 4.83528 0.349774 9.60943 0.369263ZM8.5823 5.27166L11.2032 7.75616L4.84 7.73018C4.37652 7.72829 4.00216 8.09237 4.0003 8.5468L3.99807 9.09349C3.99621 9.54792 4.36759 9.91504 4.83107 9.91693L11.1943 9.94291L8.55318 12.4059C8.21386 12.7223 8.20473 13.2519 8.53446 13.5778L8.91626 13.9518C9.24252 14.2743 9.77221 14.2765 10.0976 13.9566L14.7404 9.44486C15.0693 9.12501 15.0714 8.60566 14.7451 8.28656L10.1394 3.73019C9.81309 3.40767 9.2834 3.40551 8.95801 3.72537L8.57316 4.09623C8.24077 4.42289 8.24557 4.95252 8.5823 5.27166Z" fill="black"/>
</g>
</svg>
