<svg width="7" height="12" viewBox="0 0 7 12" fill="none" xmlns="http://www.w3.org/2000/svg">
<g id="Group 848">
<path id="Vector" fill-rule="evenodd" clip-rule="evenodd" d="M1.01651 11.6806C1.23654 11.8942 1.5938 11.8957 1.81503 11.6839L6.50404 7.1954C6.60899 7.09647 6.69273 6.97722 6.75016 6.84492C6.80758 6.71261 6.8375 6.57 6.83809 6.42577C6.83868 6.28154 6.80993 6.13869 6.75358 6.00592C6.69723 5.87315 6.61447 5.75323 6.51033 5.65344L1.82444 1.09345C1.71809 0.99153 1.57693 0.933914 1.42964 0.932299C1.28234 0.930685 1.13996 0.985193 1.0314 1.08475C0.977617 1.13392 0.934504 1.1936 0.904726 1.26011C0.874948 1.32661 0.859139 1.39852 0.858279 1.47138C0.857419 1.54424 0.871526 1.6165 0.899727 1.68369C0.927927 1.75088 0.96962 1.81156 1.02222 1.86198L5.31097 6.03418C5.36308 6.08407 5.4045 6.14405 5.4327 6.21046C5.4609 6.27688 5.47529 6.34833 5.47499 6.42048C5.4747 6.49263 5.45972 6.56396 5.43099 6.63014C5.40225 6.69632 5.36034 6.75596 5.30782 6.80543L1.01965 10.9099C0.967147 10.9593 0.925253 11.0189 0.89652 11.085C0.867787 11.1512 0.852818 11.2225 0.852523 11.2946C0.852229 11.3667 0.866616 11.4381 0.894808 11.5044C0.923 11.5708 0.964407 11.6307 1.01651 11.6806Z" fill="black"/>
</g>
</svg>
