<svg width="25" height="25" viewBox="0 0 25 25" fill="none" xmlns="http://www.w3.org/2000/svg">
<g id="Group 359">
<path id="Vector" d="M12.7323 0.601939C19.3909 0.62912 24.7638 6.07102 24.7365 12.7604C24.7092 19.4498 19.2921 24.8477 12.6334 24.8205C5.9748 24.7933 0.601973 19.3514 0.629279 12.662C0.656586 5.97261 6.07367 0.574757 12.7323 0.601939ZM11.2991 7.60787L14.9542 11.158L6.07922 11.1217C5.43279 11.1191 4.91061 11.6394 4.90796 12.2888L4.90477 13.0701C4.90212 13.7195 5.42004 14.2441 6.06646 14.2467L14.9414 14.2829L11.2574 17.8031C10.7841 18.2553 10.7713 19.0121 11.2312 19.4778L11.7636 20.0122C12.2186 20.4731 12.9574 20.4761 13.4113 20.0189L19.8873 13.5707C20.3461 13.1136 20.3491 12.3714 19.8941 11.9154L13.4709 5.4048C13.0159 4.94395 12.2772 4.94094 11.8233 5.39807L11.2865 5.92811C10.8228 6.39497 10.8295 7.15184 11.2991 7.60787Z" fill="white"/>
</g>
</svg>
