<svg width="21" height="23" viewBox="0 0 21 23" fill="none" xmlns="http://www.w3.org/2000/svg">
<path id="Vector" d="M20.5313 17.9259L10.9365 22.7023C10.8234 22.7508 10.7015 22.7759 10.5784 22.7759C10.4552 22.7759 10.3334 22.7508 10.2202 22.7023L0.625 17.9259C0.429688 17.8283 0.429688 17.6681 0.625 17.57L2.92285 16.4284C3.03618 16.3798 3.1582 16.3548 3.28149 16.3548C3.40479 16.3548 3.5268 16.3798 3.64014 16.4284L10.2202 19.6998C10.3333 19.7486 10.4552 19.7738 10.5784 19.7738C10.7015 19.7738 10.8234 19.7486 10.9365 19.6998L17.5166 16.4284C17.6298 16.3798 17.7518 16.3547 17.875 16.3547C17.9982 16.3547 18.1202 16.3798 18.2334 16.4284L20.5313 17.5724C20.729 17.6681 20.729 17.8283 20.5313 17.9259ZM20.5313 11.2594L18.2334 10.1154C18.1202 10.0668 17.9982 10.0417 17.875 10.0417C17.7518 10.0417 17.6298 10.0668 17.5166 10.1154L10.9365 13.3908C10.8233 13.4391 10.7015 13.464 10.5784 13.464C10.4553 13.464 10.3334 13.4391 10.2202 13.3908L3.64014 10.1154C3.5268 10.0668 3.40479 10.0418 3.28149 10.0418C3.1582 10.0418 3.03618 10.0668 2.92285 10.1154L0.625 11.2594C0.429688 11.3571 0.429688 11.5177 0.625 11.6163L10.2202 16.3917C10.3334 16.4403 10.4552 16.4653 10.5784 16.4653C10.7015 16.4653 10.8234 16.4403 10.9365 16.3917L20.5313 11.6163C20.729 11.5177 20.729 11.3576 20.5313 11.2594ZM0.625 5.70667L10.2197 10.1154C10.45 10.2057 10.7058 10.2057 10.936 10.1154L20.5313 5.70667C20.7266 5.61585 20.7266 5.4679 20.5313 5.37757L10.936 0.969368C10.706 0.878049 10.4498 0.878049 10.2197 0.969368L0.625 5.37757C0.427246 5.4679 0.427246 5.61585 0.625 5.70667Z" fill="#D7206A"/>
</svg>
