<svg width="37" height="29" viewBox="0 0 37 29" fill="none" xmlns="http://www.w3.org/2000/svg">
<g id="Group">
<g id="Mask group">
<mask id="mask0_1274_3416" style="mask-type:luminance" maskUnits="userSpaceOnUse" x="0" y="0" width="37" height="29">
<g id="Group_2">
<path id="Vector" d="M36.241 0.216797L0.240967 0.216797L0.240967 28.5025L36.241 28.5025L36.241 0.216797Z" fill="white"/>
</g>
</mask>
<g mask="url(#mask0_1274_3416)">
<g id="Group_3">
<path id="Vector_2" d="M15.8546 18.3852L11.2842 18.3852C11.1444 18.3852 11.0103 18.4415 10.9114 18.5417C10.8125 18.6419 10.7569 18.7779 10.7569 18.9196C10.7569 19.0613 10.8125 19.1972 10.9114 19.2974C11.0103 19.3976 11.1444 19.4539 11.2842 19.4539L15.8546 19.4539C15.9944 19.4539 16.1285 19.3976 16.2275 19.2974C16.3264 19.1972 16.3819 19.0613 16.3819 18.9196C16.3819 18.7779 16.3264 18.6419 16.2275 18.5417C16.1285 18.4415 15.9944 18.3852 15.8546 18.3852ZM15.1514 22.0901L4.14402 22.0901C4.00415 22.0901 3.87002 22.1465 3.77113 22.2467C3.67223 22.3469 3.61667 22.4828 3.61667 22.6245C3.61667 22.7663 3.67223 22.9021 3.77113 23.0023C3.87002 23.1026 4.00415 23.1588 4.14402 23.1588L15.1529 23.1588C15.2927 23.1588 15.4268 23.1026 15.5257 23.0023C15.6246 22.9021 15.6802 22.7663 15.6802 22.6245C15.6802 22.4828 15.6246 22.3469 15.5257 22.2467C15.4268 22.1465 15.2927 22.0901 15.1529 22.0901L15.1514 22.0901ZM8.73683 18.3852L4.16651 18.3852C4.02665 18.3852 3.89252 18.4415 3.79363 18.5417C3.69473 18.6419 3.63917 18.7779 3.63917 18.9196C3.63917 19.0613 3.69473 19.1972 3.79363 19.2974C3.89252 19.3976 4.02665 19.4539 4.16651 19.4539L8.73683 19.4539C8.87668 19.4539 9.01082 19.3976 9.10974 19.2974C9.20865 19.1972 9.2642 19.0613 9.2642 18.9196C9.2642 18.7779 9.20865 18.6419 9.10974 18.5417C9.01082 18.4415 8.87668 18.3852 8.73683 18.3852ZM4.84644 14.9653L8.36206 14.9653C8.68829 14.9649 9.00105 14.8334 9.23171 14.5997C9.46237 14.3659 9.59214 14.049 9.59257 13.7184L9.59257 11.5097C9.59214 11.1791 9.46237 10.8623 9.23171 10.6284C9.00105 10.3947 8.68829 10.2632 8.36206 10.2629L4.84644 10.2629C4.52021 10.2632 4.20745 10.3947 3.97677 10.6284C3.7461 10.8623 3.61634 11.1791 3.61597 11.5097L3.61597 13.7184C3.61634 14.049 3.7461 14.3659 3.97677 14.5997C4.20745 14.8334 4.52021 14.9649 4.84644 14.9653ZM4.67066 11.5097C4.67066 11.4624 4.68918 11.4172 4.72214 11.3837C4.7551 11.3503 4.79982 11.3316 4.84644 11.3316L8.36206 11.3316C8.40868 11.3316 8.45339 11.3503 8.48636 11.3837C8.51932 11.4172 8.53784 11.4624 8.53784 11.5097L8.53784 13.7184C8.53784 13.7657 8.51932 13.811 8.48636 13.8443C8.45339 13.8778 8.40868 13.8965 8.36206 13.8965L4.84644 13.8965C4.79982 13.8965 4.7551 13.8778 4.72214 13.8443C4.68918 13.811 4.67066 13.7657 4.67066 13.7184L4.67066 11.5097ZM10.1902 24.2276L4.16792 24.2276C4.02806 24.2276 3.89393 24.2839 3.79503 24.3841C3.69614 24.4843 3.64058 24.6203 3.64058 24.7619C3.64058 24.9037 3.69614 25.0396 3.79503 25.1398C3.89393 25.24 4.02806 25.2963 4.16792 25.2963L10.1902 25.2963C10.3301 25.2963 10.4642 25.24 10.5631 25.1398C10.6619 25.0396 10.7176 24.9037 10.7176 24.7619C10.7176 24.6203 10.6619 24.4843 10.5631 24.3841C10.4642 24.2839 10.3301 24.2276 10.1902 24.2276ZM22.9716 18.3852L18.4013 18.3852C18.2615 18.3852 18.1273 18.4415 18.0284 18.5417C17.9295 18.6419 17.8739 18.7779 17.8739 18.9196C17.8739 19.0613 17.9295 19.1972 18.0284 19.2974C18.1273 19.3976 18.2615 19.4539 18.4013 19.4539L22.9716 19.4539C23.1114 19.4539 23.2456 19.3976 23.3445 19.2974C23.4434 19.1972 23.4989 19.0613 23.4989 18.9196C23.4989 18.7779 23.4434 18.6419 23.3445 18.5417C23.2456 18.4415 23.1114 18.3852 22.9716 18.3852ZM29.3855 10.2629L21.5808 10.2629C21.2546 10.2632 20.9418 10.3947 20.7112 10.6284C20.4805 10.8623 20.3507 11.1791 20.3503 11.5097L20.3503 12.3647C20.3507 12.6953 20.4805 13.0122 20.7112 13.246C20.9418 13.4797 21.2546 13.6112 21.5808 13.6115L29.3855 13.6115C29.7117 13.6112 30.0245 13.4797 30.2552 13.246C30.4859 13.0122 30.6156 12.6953 30.616 12.3647L30.616 11.5097C30.6156 11.1791 30.4859 10.8623 30.2552 10.6284C30.0245 10.3947 29.7117 10.2632 29.3855 10.2629ZM29.5613 12.3647C29.5613 12.412 29.5427 12.4572 29.5098 12.4907C29.4768 12.5241 29.4321 12.5429 29.3855 12.5429L21.5808 12.5429C21.5342 12.5429 21.4895 12.5241 21.4565 12.4907C21.4235 12.4572 21.405 12.412 21.405 12.3647L21.405 11.5097C21.405 11.4624 21.4235 11.4172 21.4565 11.3837C21.4895 11.3503 21.5342 11.3316 21.5808 11.3316L29.3855 11.3316C29.4321 11.3316 29.4768 11.3503 29.5098 11.3837C29.5427 11.4172 29.5613 11.4624 29.5613 11.5097L29.5613 12.3647ZM33.6042 0.216797L5.12768 0.216797C4.42862 0.217551 3.75839 0.499289 3.26407 1.00019C2.76974 1.50109 2.49171 2.18025 2.49097 2.88862L2.49097 7.08588C1.86587 7.18054 1.29502 7.49929 0.882149 7.98421C0.469274 8.46913 0.241768 9.08805 0.240967 9.72851L0.240967 25.8307C0.241711 26.5391 0.519747 27.2182 1.01407 27.7191C1.50839 28.22 2.17862 28.5017 2.87768 28.5025L31.3542 28.5025C32.0533 28.5017 32.7235 28.22 33.2179 27.7191C33.7122 27.2182 33.9902 26.5391 33.991 25.8307L33.991 21.6335C34.6161 21.5387 35.1869 21.2201 35.5998 20.7351C36.0126 20.2502 36.2402 19.6313 36.241 18.9908L36.241 2.88862C36.2402 2.18025 35.9622 1.50109 35.4679 1.00019C34.9735 0.499289 34.3033 0.217551 33.6042 0.216797ZM32.9363 25.8307C32.9359 26.2558 32.7691 26.6633 32.4725 26.9639C32.1759 27.2644 31.7737 27.4334 31.3542 27.4337L2.87768 27.4337C2.45822 27.4334 2.05604 27.2644 1.75943 26.9639C1.46282 26.6633 1.29602 26.2558 1.29566 25.8307L1.29566 9.72851C1.29602 9.30345 1.46282 8.89588 1.75943 8.59535C2.05604 8.29479 2.45822 8.12577 2.87768 8.1254L31.3542 8.1254C31.7737 8.12577 32.1759 8.29479 32.4725 8.59535C32.7691 8.89588 32.9359 9.30345 32.9363 9.72851L32.9363 25.8307ZM35.1863 18.9908C35.1858 19.3477 35.0681 19.6943 34.8516 19.9757C34.6352 20.2573 34.3324 20.4577 33.991 20.5455L33.991 9.72851C33.992 9.66902 33.9899 9.60962 33.9846 9.5504L35.1863 9.5504L35.1863 18.9908ZM35.1863 8.48164L33.6851 8.48164C33.4611 8.0519 33.1257 7.69215 32.715 7.44108C32.3044 7.19001 31.8339 7.05711 31.3542 7.05667L3.54566 7.05667L3.54566 4.99046L35.1863 4.99046L35.1863 8.48164ZM35.1863 3.92173L3.54566 3.92173L3.54566 2.88862C3.54602 2.46357 3.71282 2.05604 4.00943 1.75548C4.30604 1.45492 4.70822 1.2859 5.12768 1.28553L33.6042 1.28553C34.0237 1.2859 34.4259 1.45492 34.7225 1.75548C35.0191 2.05604 35.1859 2.46357 35.1863 2.88862L35.1863 3.92173ZM30.0887 18.3852L25.5183 18.3852C25.3785 18.3852 25.2443 18.4415 25.1454 18.5417C25.0465 18.6419 24.991 18.7779 24.991 18.9196C24.991 19.0613 25.0465 19.1972 25.1454 19.2974C25.2443 19.3976 25.3785 19.4539 25.5183 19.4539L30.0887 19.4539C30.2285 19.4539 30.3626 19.3976 30.4615 19.2974C30.5604 19.1972 30.616 19.0613 30.616 18.9196C30.616 18.7779 30.5604 18.6419 30.4615 18.5417C30.3626 18.4415 30.2285 18.3852 30.0887 18.3852ZM28.5066 21.6627C28.1364 21.6619 27.7726 21.7602 27.4519 21.9476C27.1312 21.7606 26.7676 21.6623 26.3975 21.6627C26.0275 21.663 25.6641 21.762 25.3437 21.9497C25.0234 22.1374 24.7574 22.4072 24.5724 22.732C24.3875 23.0567 24.2902 23.4251 24.2902 23.8001C24.2902 24.1751 24.3875 24.5435 24.5724 24.8682C24.7574 25.193 25.0234 25.4628 25.3437 25.6505C25.6641 25.8382 26.0275 25.9372 26.3975 25.9376C26.7676 25.9379 27.1312 25.8396 27.4519 25.6526C27.7321 25.8161 28.0457 25.9121 28.3684 25.9331C28.691 25.9542 29.0141 25.8999 29.3128 25.7743C29.6115 25.6487 29.8776 25.4552 30.0907 25.2088C30.3038 24.9624 30.4582 24.6696 30.5418 24.3532C30.6255 24.0366 30.6362 23.7049 30.5732 23.3836C30.5102 23.0622 30.3751 22.7598 30.1784 22.4998C29.9817 22.2397 29.7287 22.029 29.4388 21.8838C29.1489 21.7387 28.8299 21.663 28.5066 21.6627ZM26.3972 24.8688C26.1887 24.8688 25.9847 24.8062 25.8113 24.6887C25.6379 24.5713 25.5027 24.4043 25.4228 24.2091C25.343 24.0138 25.3221 23.7989 25.3628 23.5916C25.4035 23.3843 25.504 23.1939 25.6515 23.0444C25.7989 22.8949 25.9869 22.7932 26.1915 22.7519C26.3961 22.7106 26.6081 22.7318 26.8008 22.8127C26.9935 22.8936 27.1583 23.0306 27.2741 23.2063C27.39 23.3821 27.4519 23.5888 27.4519 23.8001C27.4519 24.0835 27.3408 24.3554 27.143 24.5558C26.9452 24.7562 26.677 24.8688 26.3972 24.8688ZM28.5066 24.8688C28.4176 24.869 28.3289 24.8573 28.2429 24.8339C28.4153 24.5176 28.5057 24.1621 28.5057 23.8008C28.5057 23.4395 28.4153 23.084 28.2429 22.7677C28.3289 22.7442 28.4176 22.732 28.5066 22.7314C28.7863 22.7314 29.0546 22.844 29.2523 23.0444C29.4502 23.2448 29.5613 23.5167 29.5613 23.8001C29.5613 24.0835 29.4502 24.3554 29.2523 24.5558C29.0546 24.7562 28.7863 24.8688 28.5066 24.8688Z" fill="#D7206A"/>
</g>
</g>
</g>
</g>
</svg>
