<svg width="33" height="32" viewBox="0 0 33 32" fill="none" xmlns="http://www.w3.org/2000/svg">
<g id="Frame">
<g id="Layer 2">
<path id="Vector" d="M15.8494 15.5304L25.7294 5.66038C25.9207 5.49655 26.1668 5.41095 26.4185 5.42067C26.6702 5.43039 26.9089 5.53472 27.087 5.71282C27.2651 5.89091 27.3694 6.12965 27.3791 6.38133C27.3889 6.633 27.3033 6.87908 27.1394 7.07038L18.0794 16.1304L26.8794 24.9304C27.0657 25.1177 27.1702 25.3712 27.1702 25.6354C27.1702 25.8996 27.0657 26.153 26.8794 26.3404C26.7865 26.4341 26.6759 26.5085 26.554 26.5593C26.4321 26.61 26.3014 26.6362 26.1694 26.6362C26.0374 26.6362 25.9067 26.61 25.7848 26.5593C25.663 26.5085 25.5524 26.4341 25.4594 26.3404L15.8494 16.7304C15.6907 16.5711 15.6015 16.3553 15.6015 16.1304C15.6015 15.9055 15.6907 15.6897 15.8494 15.5304Z" fill="white"/>
<path id="Vector_2" d="M6.2713 15.5304L16.1513 5.66038C16.3426 5.49655 16.5887 5.41095 16.8404 5.42067C17.092 5.43039 17.3308 5.53472 17.5089 5.71282C17.687 5.89091 17.7913 6.12965 17.801 6.38133C17.8107 6.633 17.7251 6.87908 17.5613 7.07038L8.5013 16.1304L17.3013 24.9304C17.4876 25.1177 17.5921 25.3712 17.5921 25.6354C17.5921 25.8996 17.4876 26.153 17.3013 26.3404C17.1139 26.5266 16.8605 26.6312 16.5963 26.6312C16.3321 26.6312 16.0787 26.5266 15.8913 26.3404L6.2713 16.7304C6.11253 16.5711 6.02338 16.3553 6.02338 16.1304C6.02338 15.9055 6.11253 15.6897 6.2713 15.5304Z" fill="white"/>
</g>
</g>
</svg>
