<svg width="11" height="10" viewBox="0 0 11 10" fill="none" xmlns="http://www.w3.org/2000/svg">
<g id="Frame">
<path id="Vector" d="M8.10153 0.837891L9.35153 2.08789L8.39861 3.04122L7.14861 1.79122L8.10153 0.837891ZM3.52319 6.66622L4.77319 6.66622L7.80944 3.62997L6.55944 2.37997L3.52319 5.41622L3.52319 6.66622Z" fill="#66707F"/>
<path id="Vector_2" d="M8.10783 7.91667L3.59033 7.91667C3.5795 7.91667 3.56825 7.92083 3.55741 7.92083C3.54366 7.92083 3.52991 7.91708 3.51575 7.91667L2.2745 7.91667L2.2745 2.08333L5.12741 2.08333L5.96075 1.25L2.2745 1.25C1.81491 1.25 1.44116 1.62333 1.44116 2.08333L1.44116 7.91667C1.44116 8.37667 1.81491 8.75 2.2745 8.75L8.10783 8.75C8.32884 8.75 8.5408 8.6622 8.69708 8.50592C8.85336 8.34964 8.94116 8.13768 8.94116 7.91667L8.94116 4.305L8.10783 5.13833L8.10783 7.91667Z" fill="#66707F"/>
</g>
</svg>
