<svg width="28" height="28" viewBox="0 0 28 28" fill="none" xmlns="http://www.w3.org/2000/svg">
<path d="M14 10.5003C15.4128 10.5003 16.7778 10.9145 17.8465 11.6717C19.3643 12.745 20.6815 14.1497 21.539 15.167C20.6815 16.1843 19.3643 17.5902 17.8453 18.6623C16.7778 19.4195 15.4128 19.8337 14 19.8337C12.5872 19.8337 11.221 19.4195 10.1512 18.6623C8.63333 17.589 7.31617 16.1843 6.45983 15.167C7.31617 14.1497 8.63333 12.745 10.1512 11.6728C11.221 10.9145 12.5872 10.5003 14 10.5003ZM14 8.16699C12.0272 8.16699 10.2177 8.76899 8.80483 9.76649C5.74933 11.9272 3.5 15.167 3.5 15.167C3.5 15.167 5.74933 18.4068 8.80483 20.5675C10.2177 21.565 12.0272 22.167 14 22.167C15.9728 22.167 17.7823 21.565 19.1928 20.5675C22.2483 18.4068 24.5 15.167 24.5 15.167C24.5 15.167 22.2483 11.9272 19.1928 9.76649C17.7823 8.76899 15.9728 8.16699 14 8.16699Z" fill="#D7206A"/>
<path d="M14 14C13.3548 14 12.8333 14.5215 12.8333 15.1667C12.8333 15.8095 13.3548 16.3333 14 16.3333C14.6428 16.3333 15.1666 15.8095 15.1666 15.1667C15.1666 14.5215 14.6428 14 14 14Z" fill="#D7206A"/>
<path d="M14 18.667C12.0703 18.667 10.5 17.0967 10.5 15.167C10.5 13.2373 12.0703 11.667 14 11.667C15.9297 11.667 17.5 13.2373 17.5 15.167C17.5 17.0967 15.9297 18.667 14 18.667ZM14 12.8337C12.712 12.8337 11.6667 13.879 11.6667 15.167C11.6667 16.455 12.712 17.5003 14 17.5003C15.288 17.5003 16.3333 16.455 16.3333 15.167C16.3333 13.879 15.288 12.8337 14 12.8337Z" fill="#D7206A"/>
</svg>
