<svg width="25" height="24" viewBox="0 0 25 24" fill="none" xmlns="http://www.w3.org/2000/svg">
<g id="Frame" clip-path="url(#clip0_1268_2465)">
<path id="Vector" d="M23.8342 10.5236C21.1902 7.61358 16.8032 4.53758 12.4032 4.59958C8.00322 4.53658 3.61622 7.61458 0.971221 10.5236C0.60865 10.929 0.408203 11.4537 0.408203 11.9976C0.408203 12.5414 0.60865 13.0662 0.971221 13.4716C3.58422 16.3506 7.91022 19.3996 12.2422 19.3996H12.5502C16.8972 19.3996 21.2212 16.3506 23.8372 13.4706C24.1993 13.065 24.3992 12.5402 24.3986 11.9965C24.3981 11.4528 24.1971 10.9284 23.8342 10.5236ZM7.80322 11.9996C7.80322 11.0898 8.07301 10.2004 8.57846 9.44396C9.08391 8.6875 9.80234 8.0979 10.6429 7.74974C11.4834 7.40157 12.4083 7.31048 13.3006 7.48797C14.1929 7.66546 15.0126 8.10357 15.6559 8.74689C16.2992 9.39021 16.7373 10.2099 16.9148 11.1022C17.0923 11.9945 17.0012 12.9194 16.6531 13.7599C16.3049 14.6005 15.7153 15.3189 14.9588 15.8243C14.2024 16.3298 13.313 16.5996 12.4032 16.5996C11.1832 16.5996 10.0132 16.1149 9.15053 15.2523C8.28786 14.3896 7.80322 13.2196 7.80322 11.9996Z" fill="black"/>
<path id="Vector_2" d="M12.4043 14C13.5089 14 14.4043 13.1046 14.4043 12C14.4043 10.8954 13.5089 10 12.4043 10C11.2997 10 10.4043 10.8954 10.4043 12C10.4043 13.1046 11.2997 14 12.4043 14Z" fill="black"/>
</g>
<defs>
<clipPath id="clip0_1268_2465">
<rect width="24" height="24" fill="white" transform="translate(0.404297)"/>
</clipPath>
</defs>
</svg>
