<svg width="56" height="56" viewBox="0 0 56 56" fill="none" xmlns="http://www.w3.org/2000/svg">
<g id="Group 395">
<g id="Group">
<path id="Vector" d="M55.1369 28.42C54.909 28.42 54.6904 28.3295 54.5292 28.1683C54.3681 28.0072 54.2775 27.7886 54.2775 27.5607C54.2957 21.8255 52.386 16.2506 48.855 11.7312C48.7764 11.6434 48.7168 11.5404 48.6798 11.4285C48.6428 11.3167 48.6291 11.1984 48.6397 11.0811C48.6503 10.9638 48.6849 10.8499 48.7414 10.7465C48.7979 10.6431 48.875 10.5524 48.968 10.4801C49.061 10.4078 49.1679 10.3553 49.282 10.326C49.3961 10.2968 49.515 10.2913 49.6313 10.3099C49.7477 10.3285 49.8589 10.3708 49.9582 10.4342C50.0575 10.4976 50.1427 10.5808 50.2085 10.6785C53.9783 15.4965 56.017 21.4431 55.9963 27.5607C55.9963 27.7886 55.9057 28.0072 55.7446 28.1683C55.5834 28.3295 55.3648 28.42 55.1369 28.42Z" fill="#D7206A"/>
<path id="Vector_2" d="M43.2733 6.24849C43.104 6.24804 42.9384 6.19881 42.7964 6.1067C38.5736 3.2975 33.6159 1.79627 28.5441 1.79092C23.4722 1.78557 18.5115 3.27634 14.2827 6.07662C14.1885 6.13897 14.0829 6.18215 13.972 6.20369C13.8611 6.22524 13.747 6.22472 13.6363 6.20218C13.5256 6.17964 13.4204 6.13551 13.3267 6.07231C13.233 6.00911 13.1527 5.92808 13.0904 5.83385C13.028 5.73962 12.9848 5.63402 12.9633 5.5231C12.9418 5.41218 12.9423 5.29811 12.9648 5.18739C12.9874 5.07666 13.0315 4.97147 13.0947 4.8778C13.1579 4.78414 13.2389 4.70383 13.3331 4.64148C17.8464 1.65749 23.1396 0.0711651 28.5501 0.0811011C33.9606 0.091037 39.248 1.69679 43.7503 4.69734C43.903 4.79995 44.0187 4.94885 44.0804 5.12215C44.1422 5.29544 44.1467 5.48397 44.0933 5.66002C44.0399 5.83607 43.9314 5.99034 43.7838 6.10014C43.6362 6.20994 43.4573 6.26947 43.2733 6.26997L43.2733 6.24849Z" fill="#D7206A"/>
<path id="Vector_3" d="M1.85827 28.42C1.63035 28.42 1.41177 28.3295 1.25061 28.1683C1.08945 28.0071 0.998908 27.7885 0.998908 27.5606C0.987614 23.8791 1.72102 20.2333 3.15501 16.8425C4.58901 13.4517 6.69397 10.386 9.34331 7.82968C9.50969 7.67071 9.73241 7.58434 9.96247 7.58958C10.1925 7.59482 10.4111 7.69123 10.5701 7.85761C10.729 8.02399 10.8154 8.24671 10.8102 8.47677C10.8049 8.70682 10.7085 8.92538 10.5421 9.08435C8.06052 11.4781 6.08822 14.3487 4.74364 17.5237C3.39906 20.6987 2.70993 24.1127 2.71763 27.5606C2.71763 27.7885 2.62709 28.0071 2.46593 28.1683C2.30477 28.3295 2.08619 28.42 1.85827 28.42Z" fill="#D7206A"/>
<path id="Vector_4" d="M43.9177 50.1532C43.7547 50.1527 43.5951 50.1057 43.4577 50.0179C43.3203 49.9301 43.2108 49.8049 43.1418 49.6571C43.0729 49.5094 43.0474 49.345 43.0684 49.1833C43.0894 49.0216 43.156 48.8692 43.2603 48.7439C45.3228 46.2646 46.831 42.6467 47.7419 38.0018C47.7586 37.8865 47.7985 37.7758 47.8593 37.6764C47.9201 37.577 48.0004 37.491 48.0954 37.4237C48.1905 37.3563 48.2982 37.3089 48.4122 37.2845C48.5261 37.2601 48.6438 37.259 48.7581 37.2815C48.8724 37.3039 48.981 37.3494 49.0772 37.4151C49.1734 37.4808 49.2552 37.5654 49.3177 37.6637C49.3802 37.7621 49.422 37.8721 49.4407 37.9871C49.4594 38.1021 49.4544 38.2197 49.4263 38.3327C48.4638 43.2783 46.8482 47.1541 44.5795 49.8567C44.4974 49.9514 44.3957 50.027 44.2814 50.0782C44.1671 50.1294 44.043 50.155 43.9177 50.1532Z" fill="#D7206A"/>
<path id="Vector_5" d="M49.4445 31.8102L49.4016 31.8102C49.1743 31.798 48.9612 31.6961 48.8089 31.5269C48.6567 31.3578 48.5777 31.1351 48.5895 30.9078C48.6711 29.3524 48.6711 28.1751 48.6711 27.6079C48.6697 23.7421 47.5625 19.9575 45.4802 16.7004C43.3979 13.4434 40.4275 10.85 36.9193 9.22614C36.723 9.12458 36.5734 8.95127 36.5015 8.74223C36.4297 8.5332 36.4411 8.30452 36.5335 8.10371C36.6259 7.9029 36.7921 7.74541 36.9976 7.66397C37.2031 7.58253 37.432 7.5834 37.6369 7.6664C41.4409 9.42003 44.6644 12.2244 46.9277 15.7491C49.1909 19.2738 50.3996 23.3719 50.4113 27.5606C50.4113 28.1751 50.4113 29.3825 50.3254 30.9981C50.3131 31.2215 50.2143 31.4313 50.0498 31.5829C49.8853 31.7346 49.6682 31.8161 49.4445 31.8102Z" fill="#D7206A"/>
<path id="Vector_6" d="M4.38299 37.5378C4.19781 37.5387 4.01729 37.4798 3.86834 37.3698C3.71938 37.2597 3.60994 37.1045 3.55633 36.9273C3.50272 36.75 3.5078 36.5602 3.57082 36.3861C3.63383 36.2119 3.75141 36.0628 3.90604 35.9609C6.29937 34.3883 6.60444 30.6501 6.60444 27.5692C6.60444 21.7574 8.9132 16.1835 13.0228 12.0739C17.1324 7.96428 22.7063 5.65552 28.5182 5.65552C28.7461 5.65552 28.9647 5.74606 29.1258 5.90722C29.287 6.06838 29.3775 6.28696 29.3775 6.51488C29.3775 6.7428 29.287 6.96138 29.1258 7.12254C28.9647 7.2837 28.7461 7.37424 28.5182 7.37424C23.1636 7.37424 18.0282 9.50074 14.2412 13.2862C10.4541 17.0716 8.32544 22.2061 8.32316 27.5607C8.32316 31.0711 7.92786 35.3637 4.85134 37.3875C4.71403 37.4838 4.55072 37.5362 4.38299 37.5378Z" fill="#D7206A"/>
<path id="Vector_7" d="M35.601 53.8056C35.4326 53.8049 35.2681 53.7548 35.1279 53.6614C34.9877 53.568 34.8781 53.4354 34.8126 53.2802C34.7472 53.125 34.7288 52.954 34.7597 52.7885C34.7906 52.6229 34.8695 52.4701 34.9866 52.349C42.0118 45.1217 43.0603 33.7223 43.0603 27.5607C43.0594 24.9979 42.3824 22.4806 41.0976 20.2631C39.8128 18.0456 37.9657 16.2063 35.7428 14.931C33.5199 13.6556 30.9998 12.9893 28.437 12.9994C25.8742 13.0094 23.3594 13.6955 21.1465 14.9882C20.9515 15.0818 20.7284 15.0983 20.5217 15.0346C20.315 14.9708 20.1399 14.8315 20.0314 14.6444C19.9229 14.4572 19.889 14.2361 19.9364 14.025C19.9838 13.814 20.1091 13.6286 20.2872 13.5058C22.7607 12.0611 25.5716 11.2945 28.436 11.2836C31.3005 11.2726 34.1172 12.0176 36.6017 13.4433C39.0862 14.8691 41.1505 16.9251 42.5863 19.4038C44.022 21.8825 44.7784 24.6962 44.779 27.5607C44.779 33.9715 43.6704 45.8737 36.2197 53.5392C36.1399 53.623 36.0439 53.6898 35.9376 53.7355C35.8312 53.7813 35.7168 53.8051 35.601 53.8056Z" fill="#D7206A"/>
<path id="Vector_8" d="M13.0764 28.42C12.8485 28.42 12.6299 28.3294 12.4687 28.1683C12.3076 28.0071 12.217 27.7885 12.217 27.5606C12.2194 23.7818 13.5348 20.1213 15.9381 17.2053C16.007 17.1103 16.0946 17.0304 16.1955 16.9705C16.2965 16.9107 16.4086 16.8721 16.525 16.8573C16.6414 16.8424 16.7597 16.8515 16.8724 16.8841C16.9852 16.9167 17.09 16.972 17.1806 17.0467C17.2711 17.1214 17.3454 17.2138 17.3989 17.3183C17.4523 17.4228 17.4838 17.5371 17.4914 17.6542C17.499 17.7713 17.4825 17.8887 17.4429 17.9992C17.4034 18.1097 17.3417 18.211 17.2615 18.2967C15.1147 20.907 13.9394 24.1809 13.9358 27.5606C13.9358 27.7885 13.8452 28.0071 13.6841 28.1683C13.5229 28.3294 13.3043 28.42 13.0764 28.42Z" fill="#D7206A"/>
<path id="Vector_9" d="M6.39183 43.2999C6.18263 43.3027 5.97962 43.229 5.82087 43.0927C5.66212 42.9565 5.55853 42.7669 5.52954 42.5598C5.50054 42.3526 5.54812 42.1419 5.66337 41.9673C5.77861 41.7927 5.9536 41.6661 6.15551 41.6113C9.79491 40.6058 11.2343 35.4067 11.7671 32.3946C11.8099 32.1701 11.94 31.9718 12.129 31.8433C12.2226 31.7796 12.3278 31.7351 12.4385 31.7121C12.5493 31.6891 12.6636 31.6881 12.7747 31.7093C12.8859 31.7305 12.9918 31.7733 13.0864 31.8354C13.181 31.8975 13.2625 31.9776 13.3261 32.0712C13.3897 32.1647 13.4343 32.2699 13.4573 32.3807C13.4803 32.4915 13.4812 32.6057 13.4601 32.7169C12.8542 36.1243 11.1613 42.0367 6.61527 43.287C6.54167 43.3011 6.46655 43.3054 6.39183 43.2999Z" fill="#D7206A"/>
<path id="Vector_10" d="M27.5906 55.0602C27.4095 55.0605 27.2329 55.0036 27.0861 54.8975C26.9392 54.7915 26.8296 54.6418 26.7729 54.4698C26.7162 54.2978 26.7153 54.1123 26.7703 53.9398C26.8254 53.7672 26.9335 53.6164 27.0793 53.509C34.5127 48.0005 36.7385 38.8397 37.2885 32.1281C37.2975 32.0152 37.3287 31.9053 37.3802 31.8044C37.4317 31.7036 37.5026 31.614 37.5888 31.5406C37.675 31.4671 37.7748 31.4114 37.8825 31.3766C37.9902 31.3417 38.1037 31.3284 38.2166 31.3375C38.3294 31.3465 38.4394 31.3777 38.5402 31.4292C38.641 31.4807 38.7307 31.5516 38.8041 31.6378C38.8775 31.724 38.9333 31.8238 38.9681 31.9315C39.0029 32.0392 39.0162 32.1527 39.0072 32.2656C38.4271 39.3338 36.0682 49.0231 28.1062 54.8926C27.9569 55.0026 27.776 55.0614 27.5906 55.0602Z" fill="#D7206A"/>
<path id="Vector_11" d="M9.94531 47.5538C9.71739 47.5743 9.49066 47.5035 9.31499 47.3568C9.13933 47.2101 9.02912 46.9997 9.0086 46.7718C8.98809 46.5439 9.05896 46.3171 9.20561 46.1415C9.35227 45.9658 9.56271 45.8556 9.79062 45.8351C17.4389 44.43 17.8257 30.3666 17.8257 27.5565C17.8301 25.1349 18.6575 22.7867 20.1722 20.8973C21.6869 19.0079 23.7989 17.6895 26.1615 17.1584C28.5241 16.6273 30.9971 16.9151 33.1747 17.9746C35.3522 19.034 37.105 20.8022 38.1453 22.9889C38.1971 23.0912 38.2279 23.2028 38.2359 23.3171C38.244 23.4314 38.2291 23.5462 38.1921 23.6547C38.1551 23.7632 38.0968 23.8632 38.0206 23.9488C37.9444 24.0344 37.8518 24.1039 37.7483 24.1532C37.6449 24.2025 37.5326 24.2306 37.4181 24.2358C37.3036 24.2411 37.1892 24.2234 37.0817 24.1838C36.9741 24.1441 36.8756 24.0834 36.7918 24.0051C36.7081 23.9269 36.6409 23.8326 36.5941 23.728C35.7215 21.8927 34.2509 20.4086 32.4236 19.5193C30.5963 18.63 28.521 18.3884 26.5383 18.8341C24.5556 19.2798 22.7834 20.3864 21.5125 21.9721C20.2416 23.5579 19.5476 25.5286 19.5444 27.5608C19.5444 31.8576 18.8612 45.921 10.0914 47.528C10.0434 47.54 9.99455 47.5486 9.94531 47.5538Z" fill="#D7206A"/>
<path id="Vector_12" d="M20.0185 53.6937C19.8202 53.6944 19.6278 53.6264 19.4739 53.5013C19.32 53.3762 19.2141 53.2018 19.1741 53.0076C19.1342 52.8133 19.1626 52.6112 19.2546 52.4356C19.3467 52.2599 19.4966 52.1215 19.6791 52.0438C22.7593 50.7511 25.2924 48.4247 26.8419 45.4654C26.9513 45.2654 27.1356 45.117 27.3544 45.0529C27.5732 44.9889 27.8084 45.0144 28.0084 45.1238C28.2084 45.2332 28.3568 45.4175 28.4208 45.6363C28.4849 45.8551 28.4594 46.0903 28.35 46.2903C26.6147 49.594 23.7805 52.1882 20.3365 53.625C20.2358 53.6679 20.1279 53.6913 20.0185 53.6937Z" fill="#D7206A"/>
<path id="Vector_13" d="M29.7145 42.101C29.5912 42.1026 29.4693 42.0761 29.3578 42.0236C29.2542 41.9772 29.1608 41.9107 29.083 41.828C29.0053 41.7453 28.9446 41.648 28.9047 41.5417C28.8647 41.4355 28.8462 41.3223 28.8503 41.2089C28.8543 41.0954 28.8808 40.9839 28.9281 40.8807C30.7915 36.6838 31.7826 32.1521 31.8414 27.5606C31.8414 26.6728 31.4887 25.8215 30.861 25.1937C30.2333 24.566 29.3819 24.2134 28.4942 24.2134C27.6064 24.2134 26.755 24.566 26.1273 25.1937C25.4996 25.8215 25.1469 26.6728 25.1469 27.5606C25.1469 27.7885 25.0564 28.0071 24.8952 28.1682C24.7341 28.3294 24.5155 28.4199 24.2876 28.4199C24.0597 28.4199 23.8411 28.3294 23.6799 28.1682C23.5188 28.0071 23.4282 27.7885 23.4282 27.5606C23.4282 26.217 23.962 24.9285 24.912 23.9784C25.862 23.0284 27.1506 22.4946 28.4942 22.4946C29.8377 22.4946 31.1263 23.0284 32.0763 23.9784C33.0264 24.9285 33.5601 26.217 33.5601 27.5606C33.4965 32.3963 32.4529 37.1688 30.4922 41.5897C30.4253 41.7406 30.3165 41.869 30.1785 41.9597C30.0406 42.0504 29.8795 42.0994 29.7145 42.101Z" fill="#D7206A"/>
<path id="Vector_14" d="M13.8049 50.6559C13.577 50.6611 13.3564 50.5754 13.1916 50.4179C13.0268 50.2604 12.9314 50.0438 12.9262 49.8159C12.9211 49.588 13.0067 49.3674 13.1643 49.2026C13.3218 49.0378 13.5384 48.9423 13.7663 48.9372C19.5111 48.6536 21.8572 41.2889 22.7896 35.1573C22.8062 35.043 22.8456 34.9332 22.9057 34.8344C22.9657 34.7357 23.045 34.6501 23.1388 34.5827C23.2327 34.5153 23.3392 34.4675 23.4519 34.4422C23.5647 34.4169 23.6814 34.4146 23.795 34.4355C24.0192 34.4714 24.2201 34.5946 24.3537 34.7782C24.4874 34.9618 24.5429 35.1908 24.5083 35.4152C23.0001 45.1131 19.3135 50.3809 13.8479 50.6473L13.8049 50.6559Z" fill="#D7206A"/>
<path id="Vector_15" d="M53.3363 38.0834C53.2302 38.0843 53.1249 38.0639 53.0269 38.0233C52.9216 37.9824 52.8254 37.9212 52.7438 37.8431C52.6622 37.7651 52.5968 37.6717 52.5513 37.5683C52.5058 37.465 52.4812 37.3537 52.4787 37.2408C52.4763 37.1279 52.4961 37.0156 52.5371 36.9104C53.6954 33.9295 54.2871 30.7586 54.2816 27.5605C54.2816 27.3326 54.3721 27.114 54.5333 26.9529C54.6944 26.7917 54.913 26.7012 55.1409 26.7012C55.3688 26.7012 55.5874 26.7917 55.7486 26.9529C55.9097 27.114 56.0003 27.3326 56.0003 27.5605C56.005 30.9688 55.3741 34.348 54.1398 37.5248C54.0786 37.6886 53.9689 37.8299 53.8253 37.9297C53.6817 38.0295 53.5111 38.0831 53.3363 38.0834Z" fill="#D7206A"/>
</g>
</g>
</svg>
