<svg width="21" height="15" viewBox="0 0 21 15" fill="none" xmlns="http://www.w3.org/2000/svg">
<g id="Group">
<path id="Vector" d="M10.8604 10.8329C9.02216 10.8329 7.52722 9.33794 7.52722 7.49968C7.52722 5.66143 9.02216 4.16649 10.8604 4.16649C12.6987 4.16649 14.1936 5.66143 14.1936 7.49968C14.1936 9.33794 12.6987 10.8329 10.8604 10.8329ZM10.8604 4.99979C9.48214 4.99979 8.36052 6.12141 8.36052 7.49968C8.36052 8.87796 9.48214 9.99958 10.8604 9.99958C12.2387 9.99958 13.3603 8.87796 13.3603 7.49968C13.3603 6.12141 12.2387 4.99979 10.8604 4.99979ZM5.02733 3.33319C4.80633 3.33319 4.59437 3.42099 4.4381 3.57726C4.28183 3.73353 4.19403 3.94549 4.19403 4.16649C4.19403 4.38749 4.28183 4.59945 4.4381 4.75572C4.59437 4.91199 4.80633 4.99979 5.02733 4.99979C5.24833 4.99979 5.46029 4.91199 5.61656 4.75572C5.77283 4.59945 5.86063 4.38749 5.86063 4.16649C5.86063 3.94549 5.77283 3.73353 5.61656 3.57726C5.46029 3.42099 5.24833 3.33319 5.02733 3.33319ZM15.8602 5.83309C15.8602 6.05409 15.948 6.26604 16.1043 6.42232C16.2605 6.57859 16.4725 6.66638 16.6935 6.66638C16.9145 6.66638 17.1265 6.57859 17.2827 6.42232C17.439 6.26604 17.5268 6.05409 17.5268 5.83309C17.5268 5.61208 17.439 5.40013 17.2827 5.24386C17.1265 5.08758 16.9145 4.99979 16.6935 4.99979C16.4725 4.99979 16.2605 5.08758 16.1043 5.24386C15.948 5.40013 15.8602 5.61208 15.8602 5.83309ZM5.02733 8.33298C4.80633 8.33298 4.59437 8.42077 4.4381 8.57705C4.28183 8.73332 4.19403 8.94527 4.19403 9.16628C4.19403 9.38728 4.28183 9.59923 4.4381 9.75551C4.59437 9.91178 4.80633 9.99958 5.02733 9.99958C5.24833 9.99958 5.46029 9.91178 5.61656 9.75551C5.77283 9.59923 5.86063 9.38728 5.86063 9.16628C5.86063 8.94527 5.77283 8.73332 5.61656 8.57705C5.46029 8.42077 5.24833 8.33298 5.02733 8.33298ZM15.8602 10.8329C15.8602 11.0539 15.948 11.2658 16.1043 11.4221C16.2605 11.5784 16.4725 11.6662 16.6935 11.6662C16.9145 11.6662 17.1265 11.5784 17.2827 11.4221C17.439 11.2658 17.5268 11.0539 17.5268 10.8329C17.5268 10.6119 17.439 10.3999 17.2827 10.2436C17.1265 10.0874 16.9145 9.99958 16.6935 9.99958C16.4725 9.99958 16.2605 10.0874 16.1043 10.2436C15.948 10.3999 15.8602 10.6119 15.8602 10.8329ZM15.2169 14.9994C13.8545 14.9994 12.2779 14.5685 10.7521 14.1511C9.27965 13.7486 7.75721 13.3328 6.50643 13.3328C4.00987 13.3328 1.47165 14.4394 1.44582 14.4502L0.86084 14.7077V3.1682C0.86084 2.35657 1.30582 1.62243 2.02246 1.25245C3.13158 0.680804 4.80901 0 6.50643 0C7.87804 0 9.23715 0.434148 10.5521 0.852464C11.8645 1.27078 13.1037 1.6666 14.3453 1.6666C15.6969 1.6666 16.7543 1.35328 17.6035 1.10079C17.8051 1.04079 17.9934 0.984958 18.1668 0.939127C18.4828 0.854598 18.814 0.844313 19.1347 0.909076C19.4553 0.973839 19.7566 1.11189 20.015 1.31244C20.279 1.51397 20.4928 1.7739 20.6395 2.07186C20.7863 2.36983 20.862 2.69773 20.8608 3.02987V13.6669L20.6158 13.7777C20.5058 13.8277 17.8901 14.9994 15.2169 14.9994ZM6.50643 12.4995C7.86888 12.4995 9.44631 12.9311 10.9721 13.3478C12.4445 13.7502 13.9661 14.1661 15.2169 14.1661C17.256 14.1661 19.3309 13.4036 20.0267 13.1219V3.02987C20.0267 2.61322 19.8367 2.22741 19.5067 1.97325C19.349 1.85101 19.1652 1.76681 18.9697 1.72721C18.7741 1.68761 18.5721 1.69367 18.3793 1.74493C18.2134 1.78909 18.0334 1.84242 17.8401 1.89992C16.9868 2.15324 15.8177 2.49989 14.3453 2.49989C12.9737 2.49989 11.6137 2.06575 10.2988 1.6466C8.98716 1.22828 7.74805 0.833298 6.50643 0.833298C4.9765 0.833298 3.43156 1.4641 2.40494 1.99325C2.18992 2.10477 2.00985 2.27348 1.88458 2.48079C1.75931 2.68811 1.6937 2.92598 1.69497 3.1682V13.4553C2.6316 13.1086 4.55485 12.4995 6.50643 12.4995Z" fill="white"/>
</g>
</svg>
