<svg width="51" height="50" viewBox="0 0 51 50" fill="none" xmlns="http://www.w3.org/2000/svg">
<path d="M8.12598 7.74219V11.0094" stroke="#D7206A" stroke-opacity="0.69" stroke-width="2" stroke-miterlimit="10" stroke-linecap="round" stroke-linejoin="round"/>
<path d="M9.76035 9.37598H6.49316" stroke="#D7206A" stroke-opacity="0.69" stroke-width="2" stroke-miterlimit="10" stroke-linecap="round" stroke-linejoin="round"/>
<path d="M44.4072 34.7842V38.0514" stroke="#D7206A" stroke-opacity="0.69" stroke-width="2" stroke-miterlimit="10" stroke-linecap="round" stroke-linejoin="round"/>
<path d="M46.0416 36.418H42.7744" stroke="#D7206A" stroke-opacity="0.69" stroke-width="2" stroke-miterlimit="10" stroke-linecap="round" stroke-linejoin="round"/>
<path d="M9.75879 14.6777V16.5004" stroke="#D7206A" stroke-opacity="0.69" stroke-miterlimit="10" stroke-linecap="round" stroke-linejoin="round"/>
<path d="M10.6721 15.5898H8.84863" stroke="#D7206A" stroke-opacity="0.69" stroke-miterlimit="10" stroke-linecap="round" stroke-linejoin="round"/>
<path d="M41.4736 40.7559V42.5785" stroke="#D7206A" stroke-opacity="0.69" stroke-miterlimit="10" stroke-linecap="round" stroke-linejoin="round"/>
<path d="M42.3861 41.667H40.5635" stroke="#D7206A" stroke-opacity="0.69" stroke-miterlimit="10" stroke-linecap="round" stroke-linejoin="round"/>
<path d="M41.4736 17.9854V19.808" stroke="#D7206A" stroke-opacity="0.69" stroke-miterlimit="10" stroke-linecap="round" stroke-linejoin="round"/>
<path d="M42.3861 18.8975H40.5635" stroke="#D7206A" stroke-opacity="0.69" stroke-miterlimit="10" stroke-linecap="round" stroke-linejoin="round"/>
<path d="M10.6689 32.5029V34.3264" stroke="#D7206A" stroke-opacity="0.69" stroke-miterlimit="10" stroke-linecap="round" stroke-linejoin="round"/>
<path d="M11.5814 33.415H9.75879" stroke="#D7206A" stroke-opacity="0.69" stroke-miterlimit="10" stroke-linecap="round" stroke-linejoin="round"/>
<path d="M14.9385 35.716V11.0098H36.6822V33.6855H18.29" stroke="#D7206A" stroke-opacity="0.69" stroke-width="2" stroke-miterlimit="10" stroke-linecap="round" stroke-linejoin="round"/>
<path d="M14.9385 35.8455V35.7158" stroke="#D7206A" stroke-opacity="0.69" stroke-width="2" stroke-miterlimit="10" stroke-linecap="round" stroke-linejoin="round"/>
<path d="M36.6838 38.991L17.8838 38.9824" stroke="#D7206A" stroke-opacity="0.69" stroke-width="2" stroke-miterlimit="10" stroke-linecap="round" stroke-linejoin="round"/>
<path d="M14.9398 36.0213C14.9281 36.1236 14.9398 36.2322 14.9398 36.3377C14.9398 37.8025 16.1273 38.99 17.5921 38.99C19.057 38.99 20.2445 37.8025 20.2445 36.3377C20.2445 35.1916 19.5179 34.2158 18.4999 33.8447" stroke="#D7206A" stroke-opacity="0.69" stroke-width="2" stroke-miterlimit="10" stroke-linecap="round" stroke-linejoin="round"/>
<path d="M36.6846 38.9908C38.1494 38.9908 39.3369 37.8033 39.3369 36.3385C39.3369 34.9143 38.2143 33.7518 36.8057 33.6885" stroke="#D7206A" stroke-opacity="0.69" stroke-width="2" stroke-miterlimit="10" stroke-linecap="round" stroke-linejoin="round"/>
<path d="M19.7314 18.1152L32.5916 18.0996" stroke="#D7206A" stroke-opacity="0.69" stroke-width="2" stroke-miterlimit="10" stroke-linecap="round" stroke-linejoin="round"/>
<path d="M19.7314 20.8947L32.5916 20.8799" stroke="#D7206A" stroke-opacity="0.69" stroke-width="2" stroke-miterlimit="10" stroke-linecap="round" stroke-linejoin="round"/>
<path d="M19.7314 23.675L32.5916 23.6602" stroke="#D7206A" stroke-opacity="0.69" stroke-width="2" stroke-miterlimit="10" stroke-linecap="round" stroke-linejoin="round"/>
<path d="M19.7314 26.4561L32.5916 26.4404" stroke="#D7206A" stroke-opacity="0.69" stroke-width="2" stroke-miterlimit="10" stroke-linecap="round" stroke-linejoin="round"/>
<path d="M19.7314 29.0615L32.5916 29.0459" stroke="#D7206A" stroke-opacity="0.69" stroke-width="2" stroke-miterlimit="10" stroke-linecap="round" stroke-linejoin="round"/>
</svg>
