<svg width="29" height="35" viewBox="0 0 29 35" fill="none" xmlns="http://www.w3.org/2000/svg">
<g id="Group 38485">
<path id="Vector" d="M14.2396 2.53599C14.1616 2.54111 14.0835 2.52962 14.0104 2.5023C13.9373 2.47497 13.8709 2.43242 13.8156 2.37752C13.7604 2.32262 13.7176 2.25665 13.6901 2.18398C13.6626 2.11132 13.6511 2.03366 13.6562 1.95619L13.6562 0.796595C13.6562 0.642823 13.7177 0.495322 13.8271 0.386589C13.9365 0.277856 14.0848 0.216797 14.2396 0.216797C14.3943 0.216797 14.5426 0.277856 14.652 0.386589C14.7614 0.495322 14.8229 0.642823 14.8229 0.796595L14.8229 1.95619C14.828 2.03366 14.8165 2.11132 14.789 2.18398C14.7615 2.25665 14.7187 2.32262 14.6635 2.37752C14.6083 2.43242 14.5419 2.47497 14.4687 2.5023C14.3956 2.52962 14.3175 2.54111 14.2396 2.53599Z" fill="#D7206A"/>
<path id="Vector_2" d="M27.6576 15.8709C27.5797 15.8761 27.5016 15.8646 27.4284 15.8372C27.3553 15.8099 27.2889 15.7674 27.2337 15.7125C27.1785 15.6576 27.1357 15.5916 27.1082 15.5189C27.0807 15.4463 27.0691 15.3686 27.0743 15.2911C27.0743 11.9081 25.7222 8.66369 23.3155 6.27156C20.9088 3.87943 17.6446 2.53557 14.241 2.53557C10.8374 2.53557 7.57315 3.87943 5.16644 6.27156C2.75972 8.66369 1.40763 11.9081 1.40763 15.2911C1.40763 15.4449 1.34617 15.5924 1.23677 15.7011C1.12737 15.8098 0.97901 15.8709 0.8243 15.8709C0.66959 15.8709 0.521226 15.8098 0.41183 15.7011C0.302433 15.5924 0.240967 15.4449 0.240967 15.2911C0.240967 11.6006 1.71595 8.06122 4.34146 5.45162C6.96697 2.84202 10.5279 1.37598 14.241 1.37598C17.954 1.37598 21.515 2.84202 24.1405 5.45162C26.766 8.06122 28.241 11.6006 28.241 15.2911C28.2461 15.3686 28.2346 15.4463 28.2071 15.5189C28.1796 15.5916 28.1368 15.6576 28.0816 15.7125C28.0263 15.7674 27.9599 15.8099 27.8868 15.8372C27.8137 15.8646 27.7356 15.8761 27.6576 15.8709Z" fill="#D7206A"/>
<path id="Vector_3" d="M24.1576 15.8709C24.0797 15.8761 24.0016 15.8646 23.9284 15.8372C23.8553 15.8099 23.7889 15.7674 23.7337 15.7125C23.6785 15.6576 23.6357 15.5916 23.6082 15.5189C23.5807 15.4463 23.5691 15.3686 23.5743 15.2911C23.5743 8.21759 19.3743 2.53557 14.241 2.53557C9.10763 2.53557 4.90763 8.21759 4.90763 15.2911C4.90763 15.4449 4.84617 15.5924 4.73677 15.7011C4.62737 15.8098 4.47901 15.8709 4.3243 15.8709C4.16959 15.8709 4.02123 15.8098 3.91183 15.7011C3.80243 15.5924 3.74097 15.4449 3.74097 15.2911C3.74097 7.63779 8.40763 1.37598 14.241 1.37598C20.0743 1.37598 24.741 7.63779 24.741 15.2911C24.7461 15.3686 24.7346 15.4463 24.7071 15.5189C24.6796 15.5916 24.6368 15.6576 24.5816 15.7125C24.5263 15.7674 24.4599 15.8099 24.3868 15.8372C24.3137 15.8646 24.2356 15.8761 24.1576 15.8709Z" fill="#D7206A"/>
<path id="Vector_4" d="M18.323 15.8709C18.2451 15.8761 18.1669 15.8646 18.0938 15.8372C18.0207 15.8099 17.9543 15.7674 17.8991 15.7125C17.8438 15.6576 17.8011 15.5916 17.7736 15.5189C17.7461 15.4463 17.7345 15.3686 17.7397 15.2911C17.7397 7.40588 15.7563 2.53557 14.2397 2.53557C12.723 2.53557 10.7397 7.40588 10.7397 15.2911C10.7397 15.4449 10.6782 15.5924 10.5688 15.7011C10.4594 15.8098 10.311 15.8709 10.1563 15.8709C10.0016 15.8709 9.85326 15.8098 9.74386 15.7011C9.63446 15.5924 9.573 15.4449 9.573 15.2911C9.573 8.56547 11.2063 1.37598 14.2397 1.37598C17.273 1.37598 18.9063 8.56547 18.9063 15.2911C18.9115 15.3686 18.8999 15.4463 18.8724 15.5189C18.8449 15.5916 18.8022 15.6576 18.7469 15.7125C18.6917 15.7674 18.6253 15.8099 18.5522 15.8372C18.4791 15.8646 18.4009 15.8761 18.323 15.8709Z" fill="#D7206A"/>
<path id="Vector_5" d="M18.323 15.8713C18.2451 15.8764 18.1669 15.8649 18.0938 15.8376C18.0207 15.8103 17.9543 15.7677 17.8991 15.7128C17.8438 15.6579 17.8011 15.5919 17.7736 15.5193C17.7461 15.4466 17.7345 15.369 17.7397 15.2915C17.7397 14.8276 16.4563 14.1319 14.2397 14.1319C12.023 14.1319 10.7397 14.8276 10.7397 15.2915C10.7397 15.4453 10.6782 15.5927 10.5688 15.7015C10.4594 15.8102 10.311 15.8713 10.1563 15.8713C10.0016 15.8713 9.85326 15.8102 9.74386 15.7015C9.63446 15.5927 9.573 15.4453 9.573 15.2915C9.573 12.2765 18.9063 12.2765 18.9063 15.2915C18.9115 15.369 18.8999 15.4466 18.8724 15.5193C18.8449 15.5919 18.8022 15.6579 18.7469 15.7128C18.6917 15.7677 18.6253 15.8103 18.5522 15.8376C18.4791 15.8649 18.4009 15.8764 18.323 15.8713Z" fill="#D7206A"/>
<path id="Vector_6" d="M10.1576 15.8716C10.0797 15.8768 10.0016 15.8653 9.92845 15.838C9.85534 15.8106 9.78893 15.7681 9.7337 15.7132C9.67847 15.6583 9.63569 15.5923 9.60819 15.5196C9.5807 15.447 9.56914 15.3693 9.5743 15.2918C9.5743 14.7121 8.5243 14.1323 7.24097 14.1323C5.95763 14.1323 4.90763 14.7121 4.90763 15.2918C4.90763 15.4456 4.84617 15.5931 4.73677 15.7018C4.62737 15.8106 4.47901 15.8716 4.3243 15.8716C4.16959 15.8716 4.02123 15.8106 3.91183 15.7018C3.80243 15.5931 3.74097 15.4456 3.74097 15.2918C3.74097 14.0163 5.25763 12.9727 7.24097 12.9727C9.2243 12.9727 10.741 14.0163 10.741 15.2918C10.7461 15.3693 10.7346 15.447 10.7071 15.5196C10.6796 15.5923 10.6368 15.6583 10.5816 15.7132C10.5263 15.7681 10.4599 15.8106 10.3868 15.838C10.3137 15.8653 10.2356 15.8768 10.1576 15.8716ZM24.1576 15.8716C24.0797 15.8768 24.0016 15.8653 23.9284 15.838C23.8553 15.8106 23.7889 15.7681 23.7337 15.7132C23.6785 15.6583 23.6357 15.5923 23.6082 15.5196C23.5807 15.447 23.5691 15.3693 23.5743 15.2918C23.5743 14.7121 22.5243 14.1323 21.241 14.1323C19.9576 14.1323 18.9076 14.7121 18.9076 15.2918C18.9076 15.4456 18.8462 15.5931 18.7368 15.7018C18.6274 15.8106 18.479 15.8716 18.3243 15.8716C18.1696 15.8716 18.0212 15.8106 17.9118 15.7018C17.8024 15.5931 17.741 15.4456 17.741 15.2918C17.741 14.0163 19.2576 12.9727 21.241 12.9727C23.2243 12.9727 24.741 14.0163 24.741 15.2918C24.7461 15.3693 24.7346 15.447 24.7071 15.5196C24.6796 15.5923 24.6368 15.6583 24.5816 15.7132C24.5263 15.7681 24.4599 15.8106 24.3868 15.838C24.3137 15.8653 24.2356 15.8768 24.1576 15.8716Z" fill="#D7206A"/>
<path id="Vector_7" d="M27.6576 15.8716C27.5797 15.8768 27.5016 15.8653 27.4284 15.838C27.3553 15.8106 27.2889 15.7681 27.2337 15.7132C27.1785 15.6583 27.1357 15.5923 27.1082 15.5196C27.0807 15.447 27.0691 15.3693 27.0743 15.2918C27.0743 14.9843 26.9514 14.6893 26.7326 14.4719C26.5138 14.2544 26.217 14.1323 25.9076 14.1323C25.5982 14.1323 25.3015 14.2544 25.0827 14.4719C24.8639 14.6893 24.741 14.9843 24.741 15.2918C24.741 15.4456 24.6795 15.5931 24.5701 15.7018C24.4607 15.8106 24.3123 15.8716 24.1576 15.8716C24.0029 15.8716 23.8546 15.8106 23.7452 15.7018C23.6358 15.5931 23.5743 15.4456 23.5743 15.2918C23.5743 14.6768 23.8201 14.0869 24.2577 13.6519C24.6953 13.217 25.2888 12.9727 25.9076 12.9727C26.5265 12.9727 27.12 13.217 27.5575 13.6519C27.9951 14.0869 28.241 14.6768 28.241 15.2918C28.2461 15.3693 28.2346 15.447 28.2071 15.5196C28.1796 15.5923 28.1368 15.6583 28.0816 15.7132C28.0263 15.7681 27.9599 15.8106 27.8868 15.838C27.8137 15.8653 27.7356 15.8768 27.6576 15.8716ZM4.3243 15.8716C4.24636 15.8768 4.16823 15.8653 4.09512 15.838C4.02201 15.8106 3.9556 15.7681 3.90036 15.7132C3.84513 15.6583 3.80235 15.5923 3.77486 15.5196C3.74737 15.447 3.73581 15.3693 3.74097 15.2918C3.74097 14.9843 3.61803 14.6893 3.39924 14.4719C3.18045 14.2544 2.88372 14.1323 2.5743 14.1323C2.26488 14.1323 1.96815 14.2544 1.74936 14.4719C1.53057 14.6893 1.40763 14.9843 1.40763 15.2918C1.40763 15.4456 1.34617 15.5931 1.23677 15.7018C1.12737 15.8106 0.97901 15.8716 0.8243 15.8716C0.66959 15.8716 0.521226 15.8106 0.41183 15.7018C0.302433 15.5931 0.240967 15.4456 0.240967 15.2918C0.240967 14.6768 0.486798 14.0869 0.924382 13.6519C1.36197 13.217 1.95546 12.9727 2.5743 12.9727C3.19314 12.9727 3.78663 13.217 4.22422 13.6519C4.6618 14.0869 4.90763 14.6768 4.90763 15.2918C4.91279 15.3693 4.90123 15.447 4.87374 15.5196C4.84625 15.5923 4.80347 15.6583 4.74823 15.7132C4.693 15.7681 4.62659 15.8106 4.55348 15.838C4.48037 15.8653 4.40224 15.8768 4.3243 15.8716ZM12.491 35.005C11.8721 35.005 11.2786 34.7606 10.841 34.3257C10.4035 33.8907 10.1576 33.3009 10.1576 32.6858C10.1576 32.532 10.2191 32.3845 10.3285 32.2758C10.4379 32.1671 10.5863 32.106 10.741 32.106C10.8957 32.106 11.044 32.1671 11.1534 32.2758C11.2628 32.3845 11.3243 32.532 11.3243 32.6858C11.3243 32.9933 11.4472 33.2883 11.666 33.5057C11.8848 33.7232 12.1815 33.8454 12.491 33.8454C12.8004 33.8454 13.0971 33.7232 13.3159 33.5057C13.5347 33.2883 13.6576 32.9933 13.6576 32.6858L13.6576 13.5525C13.6576 13.3987 13.7191 13.2512 13.8285 13.1424C13.9379 13.0337 14.0863 12.9727 14.241 12.9727C14.3957 12.9727 14.544 13.0337 14.6534 13.1424C14.7628 13.2512 14.8243 13.3987 14.8243 13.5525L14.8243 32.6858C14.8243 33.3009 14.5785 33.8907 14.1409 34.3257C13.7033 34.7606 13.1098 35.005 12.491 35.005Z" fill="#D7206A"/>
</g>
</svg>
