<svg width="21" height="15" viewBox="0 0 21 15" fill="none" xmlns="http://www.w3.org/2000/svg">
<g id="Group">
<path id="Vector" d="M10.2388 10.8329C8.40058 10.8329 6.90564 9.33794 6.90564 7.49968C6.90564 5.66143 8.40058 4.16649 10.2388 4.16649C12.0771 4.16649 13.572 5.66143 13.572 7.49968C13.572 9.33794 12.0771 10.8329 10.2388 10.8329ZM10.2388 4.99979C8.86056 4.99979 7.73894 6.12141 7.73894 7.49968C7.73894 8.87796 8.86056 9.99957 10.2388 9.99957C11.6171 9.99957 12.7387 8.87796 12.7387 7.49968C12.7387 6.12141 11.6171 4.99979 10.2388 4.99979ZM4.40575 3.33319C4.18474 3.33319 3.97279 3.42099 3.81652 3.57726C3.66024 3.73353 3.57245 3.94549 3.57245 4.16649C3.57245 4.38749 3.66024 4.59945 3.81652 4.75572C3.97279 4.91199 4.18474 4.99979 4.40575 4.99979C4.62675 4.99979 4.8387 4.91199 4.99498 4.75572C5.15125 4.59945 5.23905 4.38749 5.23905 4.16649C5.23905 3.94549 5.15125 3.73353 4.99498 3.57726C4.8387 3.42099 4.62675 3.33319 4.40575 3.33319ZM15.2386 5.83309C15.2386 6.05409 15.3264 6.26604 15.4827 6.42232C15.639 6.57859 15.8509 6.66638 16.0719 6.66638C16.2929 6.66638 16.5049 6.57859 16.6612 6.42232C16.8174 6.26604 16.9052 6.05409 16.9052 5.83309C16.9052 5.61208 16.8174 5.40013 16.6612 5.24385C16.5049 5.08758 16.2929 4.99979 16.0719 4.99979C15.8509 4.99979 15.639 5.08758 15.4827 5.24385C15.3264 5.40013 15.2386 5.61208 15.2386 5.83309ZM4.40575 8.33298C4.18474 8.33298 3.97279 8.42077 3.81652 8.57705C3.66024 8.73332 3.57245 8.94527 3.57245 9.16628C3.57245 9.38728 3.66024 9.59923 3.81652 9.75551C3.97279 9.91178 4.18474 9.99957 4.40575 9.99957C4.62675 9.99957 4.8387 9.91178 4.99498 9.75551C5.15125 9.59923 5.23905 9.38728 5.23905 9.16628C5.23905 8.94527 5.15125 8.73332 4.99498 8.57705C4.8387 8.42077 4.62675 8.33298 4.40575 8.33298ZM15.2386 10.8329C15.2386 11.0539 15.3264 11.2658 15.4827 11.4221C15.639 11.5784 15.8509 11.6662 16.0719 11.6662C16.2929 11.6662 16.5049 11.5784 16.6612 11.4221C16.8174 11.2658 16.9052 11.0539 16.9052 10.8329C16.9052 10.6119 16.8174 10.3999 16.6612 10.2436C16.5049 10.0874 16.2929 9.99957 16.0719 9.99957C15.8509 9.99957 15.639 10.0874 15.4827 10.2436C15.3264 10.3999 15.2386 10.6119 15.2386 10.8329ZM14.5953 14.9994C13.2329 14.9994 11.6563 14.5685 10.1305 14.1511C8.65807 13.7486 7.13563 13.3328 5.88485 13.3328C3.38829 13.3328 0.850065 14.4394 0.824233 14.4502L0.239258 14.7077V3.1682C0.239258 2.35657 0.684239 1.62243 1.40088 1.25245C2.50999 0.680804 4.18742 0 5.88485 0C7.25646 0 8.61557 0.434148 9.93051 0.852464C11.243 1.27078 12.4821 1.6666 13.7237 1.6666C15.0753 1.6666 16.1328 1.35328 16.9819 1.10079C17.1835 1.04079 17.3719 0.984958 17.5452 0.939127C17.8612 0.854598 18.1925 0.844313 18.5131 0.909076C18.8337 0.973839 19.135 1.11189 19.3934 1.31244C19.6575 1.51397 19.8712 1.7739 20.018 2.07186C20.1647 2.36983 20.2404 2.69773 20.2392 3.02987V13.6669L19.9943 13.7777C19.8843 13.8277 17.2685 14.9994 14.5953 14.9994ZM5.88485 12.4995C7.24729 12.4995 8.82473 12.9311 10.3505 13.3478C11.8229 13.7502 13.3445 14.1661 14.5953 14.1661C16.6344 14.1661 18.7093 13.4036 19.4051 13.1219V3.02987C19.4051 2.61322 19.2151 2.22741 18.8851 1.97325C18.7274 1.85101 18.5437 1.76681 18.3481 1.72721C18.1526 1.68761 17.9505 1.69367 17.7577 1.74493C17.5919 1.78909 17.4119 1.84242 17.2185 1.89992C16.3652 2.15324 15.1961 2.49989 13.7237 2.49989C12.3521 2.49989 10.9921 2.06575 9.67719 1.6466C8.36558 1.22828 7.12647 0.833298 5.88485 0.833298C4.35492 0.833298 2.80998 1.4641 1.78336 1.99325C1.56834 2.10477 1.38827 2.27348 1.263 2.48079C1.13773 2.68811 1.07211 2.92598 1.07339 3.1682V13.4553C2.01002 13.1086 3.93327 12.4995 5.88485 12.4995Z" fill="#D7206A"/>
</g>
</svg>
