<svg width="50" height="52" viewBox="0 0 50 52" fill="none" xmlns="http://www.w3.org/2000/svg">
<g id="Group">
<path id="Vector" d="M16.3792 43.9804C16.2089 43.9804 16.0423 43.9298 15.9006 43.8352C15.7589 43.7406 15.6485 43.6061 15.5832 43.4488C15.5179 43.2914 15.5007 43.1182 15.5337 42.9511C15.5668 42.784 15.6486 42.6304 15.7689 42.5097L20.0792 38.1847C20.1593 38.1044 20.2544 38.0407 20.3592 37.9972C20.4639 37.9537 20.5762 37.9313 20.6896 37.9312L33.1534 37.9312C33.4923 37.9321 33.828 37.8658 34.1413 37.7364C34.4545 37.6069 34.739 37.4168 34.9784 37.1769L47.8138 24.3898C47.9603 24.2437 48.0765 24.0701 48.1558 23.879C48.2351 23.6878 48.2759 23.483 48.2759 23.276C48.2759 23.0691 48.2351 22.8642 48.1558 22.6731C48.0765 22.482 47.9603 22.3084 47.8138 22.1622C47.5157 21.8666 47.1129 21.7007 46.6931 21.7007C46.2733 21.7007 45.8705 21.8666 45.5724 22.1622L35.1888 32.5071C35.1084 32.5872 35.0131 32.6507 34.9082 32.6939C34.8034 32.7371 34.691 32.7591 34.5775 32.7588L27.656 32.7588C27.4273 32.7588 27.2081 32.668 27.0464 32.5063C26.8847 32.3447 26.7939 32.1254 26.7939 31.8967C26.7939 31.6681 26.8847 31.4488 27.0464 31.2872C27.2081 31.1255 27.4273 31.0347 27.656 31.0347L34.2241 31.0347L44.3526 20.9415C44.9744 20.3238 45.8153 19.9771 46.6918 19.9771C47.5683 19.9771 48.4092 20.3238 49.031 20.9415C49.3382 21.2478 49.5819 21.6116 49.7482 22.0122C49.9145 22.4128 50.0001 22.8423 50.0001 23.276C50.0001 23.7098 49.9145 24.1392 49.7482 24.5398C49.5819 24.9404 49.3382 25.3043 49.031 25.6105L36.1957 38.3985C35.7965 38.7982 35.3222 39.115 34.8001 39.3308C34.2779 39.5465 33.7183 39.6568 33.1534 39.6554L21.0473 39.6554L16.9896 43.727C16.9095 43.8073 16.8144 43.871 16.7096 43.9145C16.6049 43.958 16.4926 43.9804 16.3792 43.9804Z" fill="#FABF4C"/>
<path id="Vector_2" d="M8.62057 36.2069C8.44981 36.2071 8.28286 36.1565 8.14089 36.0616C7.99892 35.9667 7.88832 35.8318 7.82312 35.674C7.75793 35.5162 7.74107 35.3426 7.77468 35.1752C7.8083 35.0077 7.89088 34.8541 8.01194 34.7337L16.5206 26.2569C16.9198 25.8572 17.3941 25.5404 17.9162 25.3246C18.4383 25.1089 18.9979 24.9986 19.5628 25L28.0887 25C29.1176 24.9972 30.1054 25.4031 30.835 26.1286C31.5645 26.8541 31.976 27.8397 31.9788 28.8686C31.9817 29.8974 31.5757 30.8853 30.8502 31.6148C30.1247 32.3443 29.1391 32.7558 28.1103 32.7587L20.7344 32.7587C20.5058 32.7587 20.2865 32.6678 20.1248 32.5062C19.9631 32.3445 19.8723 32.1252 19.8723 31.8966C19.8723 31.668 19.9631 31.4487 20.1248 31.287C20.2865 31.1253 20.5058 31.0345 20.7344 31.0345L28.1103 31.0345C28.6819 31.0317 29.2289 30.8019 29.6311 30.3957C30.0332 29.9895 30.2575 29.4401 30.2547 28.8686C30.2518 28.297 30.022 27.7499 29.6158 27.3478C29.2096 26.9456 28.6603 26.7213 28.0887 26.7242L19.5628 26.7242C19.2239 26.7235 18.8883 26.7898 18.5751 26.9192C18.2619 27.0487 17.9774 27.2387 17.7378 27.4785L9.22919 35.9552C9.06763 36.1164 8.84876 36.2069 8.62057 36.2069Z" fill="#FABF4C"/>
<path id="Vector_3" d="M12.9309 51.7242C12.7023 51.7241 12.483 51.6333 12.3214 51.4716L0.252403 39.4026C0.0907893 39.2409 1.32788e-09 39.0217 1.27941e-09 38.7931C1.23095e-09 38.5645 0.0907893 38.3453 0.252403 38.1836L5.42483 33.0112C5.58649 32.8496 5.80572 32.7588 6.03432 32.7588C6.26291 32.7588 6.48214 32.8496 6.6438 33.0112L18.7128 45.0802C18.8744 45.2419 18.9652 45.4611 18.9652 45.6897C18.9652 45.9183 18.8744 46.1375 18.7128 46.2992L13.5404 51.4716C13.3787 51.6333 13.1595 51.7241 12.9309 51.7242ZM2.08086 38.7931L12.9309 49.6431L16.8843 45.6897L6.03432 34.8396L2.08086 38.7931Z" fill="#FABF4C"/>
<path id="Vector_4" d="M12.069 45.6898C11.8404 45.6897 11.6212 45.5989 11.4595 45.4372L9.7354 43.7131C9.57837 43.5505 9.49148 43.3327 9.49344 43.1067C9.4954 42.8806 9.58607 42.6644 9.7459 42.5046C9.90574 42.3447 10.122 42.2541 10.348 42.2521C10.574 42.2502 10.7918 42.337 10.9544 42.4941L12.6785 44.2182C12.799 44.3388 12.8811 44.4924 12.9144 44.6596C12.9476 44.8268 12.9305 45.0001 12.8653 45.1576C12.8001 45.3151 12.6896 45.4497 12.5479 45.5444C12.4061 45.6392 12.2395 45.6897 12.069 45.6898ZM36.207 6.89657C31.4932 6.89657 28.4484 5.54312 28.4484 3.44829C28.4484 1.35345 31.4932 -5.10945e-09 36.207 -6.20424e-09C40.9208 -7.29902e-09 43.9657 1.35345 43.9657 3.44829C43.9657 5.54312 40.9208 6.89657 36.207 6.89657ZM36.207 1.72414C31.9941 1.72414 30.1725 2.86553 30.1725 3.44829C30.1725 4.03105 31.9941 5.17243 36.207 5.17243C40.42 5.17243 42.2415 4.03105 42.2415 3.44829C42.2415 2.86552 40.42 1.72414 36.207 1.72414Z" fill="#FABF4C"/>
<path id="Vector_5" d="M36.2069 10.3448C31.4931 10.3448 28.4482 8.99136 28.4482 6.89653L28.4482 3.44824L30.1724 3.44824L30.1724 6.89653C30.1724 7.47929 31.9939 8.62067 36.2069 8.62067C40.4198 8.62067 42.2414 7.47929 42.2414 6.89653L42.2414 3.44824L43.9655 3.44824L43.9655 6.89653C43.9655 8.99136 40.9207 10.3448 36.2069 10.3448Z" fill="#FABF4C"/>
<path id="Vector_6" d="M36.2069 13.7931C31.4931 13.7931 28.4482 12.4396 28.4482 10.3448L28.4482 6.89648L30.1724 6.89648L30.1724 10.3448C30.1724 10.9275 31.9939 12.0689 36.2069 12.0689C40.4198 12.0689 42.2414 10.9275 42.2414 10.3448L42.2414 6.89648L43.9655 6.89648L43.9655 10.3448C43.9655 12.4396 40.9207 13.7931 36.2069 13.7931Z" fill="#FABF4C"/>
<path id="Vector_7" d="M36.2069 17.2413C31.4931 17.2413 28.4482 15.8878 28.4482 13.793L28.4482 10.3447L30.1724 10.3447L30.1724 13.793C30.1724 14.3758 31.9939 15.5172 36.2069 15.5172C40.4198 15.5172 42.2414 14.3758 42.2414 13.793L42.2414 10.3447L43.9655 10.3447L43.9655 13.793C43.9655 15.8878 40.9207 17.2413 36.2069 17.2413Z" fill="#FABF4C"/>
<path id="Vector_8" d="M36.2071 20.6896C31.4933 20.6896 28.4484 19.3362 28.4484 17.2413L28.4484 13.7931L30.1726 13.7931L30.1726 17.2413C30.1726 17.8241 31.9941 18.9655 36.2071 18.9655C40.42 18.9655 42.2416 17.8241 42.2416 17.2413L42.2416 13.7931L43.9657 13.7931L43.9657 17.2413C43.9657 19.3362 40.9209 20.6896 36.2071 20.6896ZM22.4139 13.7931C17.7001 13.7931 14.6553 12.4396 14.6553 10.3448C14.6553 8.24994 17.7001 6.89648 22.4139 6.89648C27.1277 6.89648 30.1726 8.24994 30.1726 10.3448C30.1726 12.4396 27.1277 13.7931 22.4139 13.7931ZM22.4139 8.62063C18.201 8.62063 16.3794 9.76201 16.3794 10.3448C16.3794 10.9275 18.201 12.0689 22.4139 12.0689C26.6269 12.0689 28.4484 10.9275 28.4484 10.3448C28.4484 9.76201 26.6269 8.62063 22.4139 8.62063Z" fill="#FABF4C"/>
<path id="Vector_9" d="M22.4139 17.2413C17.7001 17.2413 14.6553 15.8878 14.6553 13.793L14.6553 10.3447L16.3794 10.3447L16.3794 13.793C16.3794 14.3758 18.201 15.5172 22.4139 15.5172C26.6269 15.5172 28.4484 14.3758 28.4484 13.793L28.4484 10.3447L30.1726 10.3447L30.1726 13.793C30.1726 15.8878 27.1277 17.2413 22.4139 17.2413Z" fill="#FABF4C"/>
<path id="Vector_10" d="M22.4139 20.6895C17.7001 20.6895 14.6553 19.3361 14.6553 17.2413L14.6553 13.793L16.3794 13.793L16.3794 17.2413C16.3794 17.824 18.201 18.9654 22.4139 18.9654C26.6269 18.9654 28.4484 17.824 28.4484 17.2413L28.4484 13.793L30.1726 13.793L30.1726 17.2413C30.1726 19.3361 27.1277 20.6895 22.4139 20.6895Z" fill="#FABF4C"/>
</g>
</svg>
