<svg width="61" height="44" viewBox="0 0 61 44" fill="none" xmlns="http://www.w3.org/2000/svg">
<g id="Group 396">
<g id="Group">
<g id="Group_2">
<g id="Group_3">
<g id="Group_4">
<path id="Vector" d="M19.433 22.3906L14.9103 22.3906C11.0044 22.4003 7.84046 25.5642 7.83081 29.4701L7.83081 31.7373C7.83081 32.1654 8.17791 32.5125 8.60604 32.5125L25.7343 32.5125C25.7372 32.5125 25.7401 32.5125 25.743 32.5125C26.1712 32.5093 26.5156 32.1596 26.5124 31.7314L26.5124 29.4701C26.5028 25.5642 23.3388 22.4003 19.433 22.3906ZM24.962 30.9562L9.38127 30.9562L9.38127 29.4701C9.39722 26.4231 11.8633 23.957 14.9103 23.9411L19.433 23.9411C22.4799 23.957 24.946 26.4231 24.962 29.4701L24.962 30.9562Z" fill="#D7206A"/>
<path id="Vector_2" d="M53.3991 29.335L32.6287 29.335C32.238 29.3589 31.9266 29.6705 31.9026 30.061C31.8763 30.4884 32.2014 30.8562 32.6287 30.8825L53.3991 30.8825C53.7897 30.8585 54.1012 30.547 54.1251 30.1564C54.1515 29.729 53.8265 29.3613 53.3991 29.335Z" fill="#D7206A"/>
<path id="Vector_3" d="M20.8183 19.8274L20.8651 19.7836C20.8656 19.783 20.8662 19.7824 20.867 19.7817C22.9057 17.7419 22.9049 14.4356 20.8651 12.3969C19.8874 11.4152 18.5588 10.8634 17.1732 10.864C15.8091 10.8634 14.4992 11.398 13.5252 12.353L13.4784 12.3969C13.4778 12.3975 13.4773 12.3981 13.4765 12.3988C11.4378 14.4386 11.4385 17.7449 13.4784 19.7836C15.4991 21.8084 18.7735 21.828 20.8183 19.8274ZM14.5813 13.4969L14.6193 13.4588C16.0613 12.0687 18.3498 12.0855 19.771 13.4969L19.7797 13.494C21.2145 14.9297 21.2145 17.2566 19.7797 18.6924L19.7417 18.7304C18.2995 20.1272 16.0044 20.1115 14.5813 18.6953C13.1465 17.2595 13.1465 14.9327 14.5813 13.4969Z" fill="#D7206A"/>
<path id="Vector_4" d="M55.8354 0.0810547L6.16211 0.0810547C3.3138 0.0890995 1.00682 2.39607 0.998779 5.24439L0.998779 38.1318C1.00682 40.9801 3.3138 43.287 6.16211 43.2951L55.8354 43.2951C58.6838 43.287 60.9907 40.9801 60.9988 38.1318L60.9988 5.24439C60.9907 2.39607 58.6838 0.0890995 55.8354 0.0810547ZM59.4512 38.1318C59.4448 40.126 57.8297 41.7411 55.8354 41.7476L6.16211 41.7476C4.16787 41.7411 2.55275 40.126 2.54632 38.1318L2.54632 5.24439C2.55275 3.25014 4.16787 1.63503 6.16211 1.62859L55.8354 1.62859C57.8297 1.63503 59.4448 3.25014 59.4512 5.24439L59.4512 38.1318Z" fill="#D7206A"/>
<path id="Vector_5" d="M53.3992 12.4961L32.6288 12.4961C32.2382 12.5201 31.9268 12.8316 31.9026 13.2223C31.8763 13.6497 32.2014 14.0174 32.6288 14.0436L53.3992 14.0436C53.7899 14.0196 54.1013 13.7081 54.1254 13.3174C54.1516 12.8901 53.8266 12.5224 53.3992 12.4961Z" fill="#D7206A"/>
<path id="Vector_6" d="M53.3992 20.916L32.6288 20.916C32.2382 20.94 31.9268 21.2516 31.9026 21.6422C31.8763 22.0696 32.2014 22.4374 32.6288 22.4636L53.3992 22.4636C53.7899 22.4396 54.1013 22.128 54.1254 21.7373C54.1516 21.3101 53.8266 20.9423 53.3992 20.916Z" fill="#D7206A"/>
<path id="Vector_7" d="M53.3992 16.7061L32.6288 16.7061C32.2382 16.73 31.9268 17.0416 31.9026 17.4323C31.8763 17.8597 32.2014 18.2274 32.6288 18.2536L53.3992 18.2536C53.7899 18.2296 54.1013 17.918 54.1254 17.5274C54.1516 17.1001 53.8266 16.7324 53.3992 16.7061Z" fill="#D7206A"/>
<path id="Vector_8" d="M53.3991 25.125L32.6287 25.125C32.238 25.149 31.9266 25.4605 31.9026 25.8511C31.8763 26.2785 32.2014 26.6462 32.6287 26.6725L53.3991 26.6725C53.7897 26.6485 54.1012 26.337 54.1251 25.9465C54.1515 25.5191 53.8265 25.1513 53.3991 25.125Z" fill="#D7206A"/>
</g>
</g>
</g>
</g>
</g>
</svg>
