<svg width="31" height="36" viewBox="0 0 31 36" fill="none" xmlns="http://www.w3.org/2000/svg">
<g id="Clip path group">
<mask id="mask0_1274_3430" style="mask-type:luminance" maskUnits="userSpaceOnUse" x="0" y="0" width="31" height="36">
<g id="clip0_4776_1900">
<path id="Vector" d="M30.241 0.216797L0.240967 0.216797L0.240967 35.3597L30.241 35.3597L30.241 0.216797Z" fill="white"/>
</g>
</mask>
<g mask="url(#mask0_1274_3430)">
<g id="Group">
<g id="Mask group">
<mask id="mask1_1274_3430" style="mask-type:luminance" maskUnits="userSpaceOnUse" x="0" y="0" width="31" height="36">
<g id="Group_2">
<path id="Vector_2" d="M30.241 0.216797L0.240967 0.216797L0.240967 35.3597L30.241 35.3597L30.241 0.216797Z" fill="white"/>
</g>
</mask>
<g mask="url(#mask1_1274_3430)">
<g id="Group_3">
<path id="Vector_3" d="M15.8958 0.2168C15.3995 0.2168 14.9237 0.41514 14.5727 0.768206C14.2218 1.12127 14.0248 1.60015 14.0248 2.09945L14.0248 2.72701C14.0134 2.79345 14.0134 2.86134 14.0248 2.92779L14.374 3.98211L12.7774 3.98211C12.6602 3.98036 12.5448 4.01253 12.4454 4.07483C12.3459 4.13715 12.2662 4.22697 12.2159 4.33353L11.1432 6.49231L9.65882 6.49231L9.65882 5.86476C9.65882 5.69833 9.59308 5.53868 9.47617 5.42099C9.35917 5.3033 9.20051 5.23721 9.03517 5.23721L0.864668 5.23721C0.699252 5.23721 0.540582 5.3033 0.423615 5.42099C0.306649 5.53868 0.240967 5.69833 0.240967 5.86476C0.240967 6.0312 0.306649 6.19081 0.423615 6.30849C0.540582 6.42618 0.699252 6.49231 0.864668 6.49231L3.42182 6.49231L3.42182 16.5331L0.864668 16.5331C0.699252 16.5331 0.540582 16.5992 0.423615 16.7169C0.306649 16.8347 0.240967 16.9943 0.240967 17.1606C0.240967 17.3272 0.306649 17.4867 0.423615 17.6045C0.540582 17.7221 0.699252 17.7882 0.864668 17.7882L9.03517 17.7882C9.20051 17.7882 9.35917 17.7221 9.47617 17.6045C9.59308 17.4867 9.65882 17.3272 9.65882 17.1606L9.65882 16.5331L11.3178 16.5331L12.3782 17.5999C12.4876 17.7044 12.6275 17.7704 12.7774 17.7882L6.40314 26.3229C5.77701 27.1629 5.396 28.1618 5.30287 29.2076C5.20973 30.2534 5.40815 31.3046 5.87586 32.2432C6.34357 33.1818 7.06203 33.9706 7.95061 34.5211C8.83922 35.0716 9.86274 35.362 10.9063 35.3597L24.6276 35.3597C25.6709 35.3621 26.6943 35.0711 27.582 34.5197C28.4699 33.9683 29.1869 33.1784 29.6525 32.2389C30.1181 31.2995 30.3136 30.2477 30.217 29.2025C30.1204 28.1573 29.7356 27.1599 29.1058 26.3229L22.5071 17.4619C22.7578 17.2883 22.9627 17.056 23.104 16.7848C23.2453 16.5136 23.3187 16.2118 23.3178 15.9056C23.0135 15.5591 22.8456 15.1128 22.8456 14.6505C22.8456 14.1881 23.0135 13.7417 23.3178 13.3954C23.0135 13.0489 22.8456 12.6026 22.8456 12.1403C22.8456 11.678 23.0135 11.2316 23.3178 10.8851C23.0135 10.5388 22.8456 10.0924 22.8456 9.63003C22.8456 9.16777 23.0135 8.72138 23.3178 8.37496C23.3177 7.91599 23.15 7.47304 22.8464 7.1305C22.5428 6.78797 22.1244 6.56977 21.6713 6.5174L22.1079 4.78535L22.7192 2.92779C22.724 2.86094 22.724 2.79386 22.7192 2.72701L22.7192 2.09945C22.7192 1.60015 22.522 1.12127 22.1711 0.768206C21.8201 0.41514 21.3442 0.2168 20.8481 0.2168C20.3858 0.21593 19.9403 0.390739 19.6007 0.70627C19.2585 0.394901 18.8146 0.220744 18.3533 0.2168C17.891 0.21593 17.4455 0.390739 17.1059 0.70627C16.7637 0.394901 16.3198 0.220744 15.8584 0.2168L15.8958 0.2168ZM15.8958 1.4719C16.0602 1.47512 16.2171 1.54224 16.3332 1.65925C16.4495 1.77624 16.5164 1.93402 16.5196 2.09945L16.5196 2.72701C16.5196 2.89344 16.5852 3.05305 16.7022 3.17074C16.8191 3.28843 16.9779 3.35456 17.1432 3.35456C17.3087 3.35456 17.4672 3.28843 17.5842 3.17074C17.7012 3.05305 17.767 2.89344 17.767 2.72701L17.767 2.09945C17.767 1.93302 17.8326 1.77337 17.9496 1.65568C18.0665 1.53799 18.2253 1.4719 18.3906 1.4719C18.555 1.47512 18.7119 1.54224 18.828 1.65925C18.9443 1.77624 19.0112 1.93402 19.0144 2.09945L19.0144 2.72701C19.0144 2.89344 19.08 3.05305 19.197 3.17074C19.3139 3.28843 19.4727 3.35456 19.638 3.35456C19.8035 3.35456 19.962 3.28843 20.079 3.17074C20.196 3.05305 20.2618 2.89344 20.2618 2.72701L20.2618 2.09945C20.2618 1.93302 20.3275 1.77337 20.4445 1.65568C20.5613 1.53799 20.7201 1.4719 20.8855 1.4719C21.0499 1.47512 21.2067 1.54224 21.3228 1.65925C21.4391 1.77624 21.506 1.93402 21.5092 2.09945L21.5092 2.62658L20.9104 4.40883L20.399 6.4421L16.3948 6.4421L15.8834 4.40883L15.297 2.62658L15.297 2.09945C15.297 1.93302 15.3628 1.77337 15.4798 1.65568C15.5968 1.53799 15.7553 1.4719 15.9208 1.4719L15.8958 1.4719ZM13.2015 5.23721L14.7731 5.23721L15.2847 7.27047L15.2847 7.35829C15.3052 7.39872 15.3303 7.43666 15.3594 7.47129C15.3594 7.47129 15.3594 7.47127 15.4218 7.53403L15.5092 7.53403L15.584 7.53403C15.6575 7.55432 15.735 7.55432 15.8085 7.53403L21.5092 7.53403C21.6746 7.53403 21.8332 7.60016 21.9502 7.71784C22.0672 7.83553 22.1328 7.99514 22.1328 8.16158C22.1328 8.32802 22.0672 8.48763 21.9502 8.60531C21.8332 8.723 21.6746 8.78917 21.5092 8.78917L18.5903 8.78917C18.4247 8.78917 18.2662 8.85525 18.1492 8.97294C18.0323 9.09063 17.9666 9.25023 17.9666 9.41668C17.9666 9.58314 18.0323 9.74274 18.1492 9.86043C18.2662 9.97811 18.4247 10.0442 18.5903 10.0442L21.5092 10.0442C21.6746 10.0442 21.8332 10.1104 21.9502 10.2281C22.0672 10.3457 22.1328 10.5053 22.1328 10.6718C22.1328 10.8383 22.0672 10.9978 21.9502 11.1155C21.8332 11.2331 21.6746 11.2993 21.5092 11.2993L18.5903 11.2993C18.4247 11.2993 18.2662 11.3655 18.1492 11.4832C18.0323 11.6009 17.9666 11.7604 17.9666 11.9269C17.9666 12.0934 18.0323 12.2529 18.1492 12.3706C18.2662 12.4883 18.4247 12.5544 18.5903 12.5544L21.5092 12.5544C21.6746 12.5544 21.8332 12.6206 21.9502 12.7383C22.0672 12.856 22.1328 13.0155 22.1328 13.182C22.1328 13.3485 22.0672 13.508 21.9502 13.6257C21.8332 13.7434 21.6746 13.8095 21.5092 13.8095L18.5903 13.8095C18.4247 13.8095 18.2662 13.8757 18.1492 13.9934C18.0323 14.1111 17.9666 14.2706 17.9666 14.4371C17.9666 14.6036 18.0323 14.7631 18.1492 14.8808C18.2662 14.9985 18.4247 15.0647 18.5903 15.0647L21.5092 15.0647C21.6746 15.0647 21.8332 15.1308 21.9502 15.2485C22.0672 15.3662 22.1328 15.5257 22.1328 15.6922C22.1328 15.8586 22.0672 16.0182 21.9502 16.1359C21.8332 16.2536 21.6746 16.3198 21.5092 16.3198L13.1516 16.3198L12.0788 15.2404C12.0173 15.1872 11.9505 15.141 11.8792 15.1023L11.6422 15.1023L9.65882 15.1023L9.65882 7.57168L11.53 7.57168C11.6315 7.56735 11.7302 7.53711 11.8169 7.48381L11.8792 7.48381C11.9526 7.4374 12.0129 7.37252 12.0539 7.29555L13.2015 5.23721ZM4.66922 6.49231L8.41142 6.49231L8.41142 16.5331L4.66922 16.5331L4.66922 6.49231ZM6.54032 14.0229C6.37491 14.0229 6.21627 14.089 6.09932 14.2067C5.98235 14.3244 5.91662 14.4841 5.91662 14.6505C5.91662 14.8169 5.98235 14.9765 6.09932 15.0942C6.21627 15.2119 6.37491 15.278 6.54032 15.278C6.70574 15.278 6.86438 15.2119 6.98135 15.0942C7.09831 14.9765 7.16402 14.8169 7.16402 14.6505C7.16402 14.4841 7.09831 14.3244 6.98135 14.2067C6.86438 14.089 6.70574 14.0229 6.54032 14.0229ZM14.3366 17.7882L15.3345 17.7882L14.7982 19.4826C14.7509 19.6423 14.7675 19.8143 14.8444 19.962C14.9213 20.1097 15.0524 20.2214 15.2098 20.2733L15.3969 20.2733C15.5297 20.2722 15.659 20.2292 15.7664 20.1504C15.8738 20.0717 15.9539 19.9609 15.9956 19.8341L16.6443 17.7631L17.1432 17.7631L17.1432 19.6457C17.1432 19.8122 17.209 19.9718 17.326 20.0895C17.4429 20.2072 17.6015 20.2733 17.767 20.2733C17.9324 20.2733 18.091 20.2072 18.208 20.0895C18.325 19.9718 18.3906 19.8122 18.3906 19.6457L18.3906 17.7631L18.8771 17.7631L19.5257 19.8341C19.5503 19.9164 19.5908 19.9931 19.6449 20.0598C19.6989 20.1265 19.7655 20.1818 19.8407 20.2226C19.9161 20.2635 19.9985 20.2889 20.0837 20.2976C20.1688 20.3063 20.2547 20.298 20.3366 20.2733C20.4185 20.2487 20.4947 20.2079 20.5611 20.1535C20.6273 20.0991 20.6823 20.0321 20.7227 19.9565C20.7634 19.8806 20.7887 19.7975 20.7972 19.712C20.806 19.6264 20.7977 19.54 20.7731 19.4575L20.2367 17.7631L21.2471 17.7631L28.1703 27.0509C28.652 27.7047 28.9442 28.4801 29.0146 29.2909C29.0849 30.1018 28.9306 30.9163 28.5688 31.6442C28.207 32.3722 27.652 32.9852 26.9651 33.4151C26.2782 33.8449 25.4865 34.0748 24.6776 34.0794L10.9562 34.0794C10.1443 34.0817 9.34785 33.8563 8.65632 33.4283C7.96479 33.0004 7.40557 32.3868 7.04144 31.6568C6.67734 30.9266 6.52278 30.1088 6.5951 29.2952C6.66745 28.4816 6.96383 27.7043 7.45094 27.0509L14.3366 17.7882ZM15.2722 22.8086C15.1067 22.8086 14.9481 22.8747 14.8312 22.9924C14.7142 23.1101 14.6484 23.2698 14.6484 23.4362C14.6484 23.6027 14.7142 23.7622 14.8312 23.8799C14.9481 23.9976 15.1067 24.0637 15.2722 24.0637L16.5196 24.0637C16.9055 24.0648 17.2817 24.186 17.5967 24.4108C17.9116 24.6354 18.1497 24.9527 18.2783 25.3188L15.2722 25.3188C15.1067 25.3188 14.9481 25.3849 14.8312 25.5026C14.7142 25.6204 14.6484 25.78 14.6484 25.9463C14.6484 26.1129 14.7142 26.2724 14.8312 26.3901C14.9481 26.5079 15.1067 26.5739 15.2722 26.5739L18.2658 26.5739C18.1379 26.9381 17.9018 27.2539 17.5893 27.4784C17.2769 27.7029 16.9035 27.8255 16.5196 27.8291L15.2722 27.8291C15.1067 27.8291 14.9481 27.8951 14.8312 28.0127C14.7142 28.1305 14.6484 28.2902 14.6484 28.4566C14.6463 28.5398 14.6607 28.6225 14.6907 28.7002C14.7207 28.7777 14.7657 28.8485 14.823 28.9085L18.5653 32.6737C18.6843 32.7938 18.8458 32.8616 19.0144 32.862C19.1363 32.8603 19.2552 32.8225 19.3563 32.7534C19.4573 32.6843 19.5359 32.5871 19.5822 32.4734C19.6288 32.3598 19.641 32.235 19.6178 32.1144C19.5944 31.9938 19.5364 31.8828 19.451 31.7951L16.7315 29.0465C17.4113 28.9969 18.0563 28.7246 18.5675 28.2713C19.079 27.8179 19.4287 27.2085 19.5632 26.5363L20.2618 26.5363C20.4272 26.5363 20.5858 26.4702 20.7028 26.3525C20.8198 26.2348 20.8855 26.0751 20.8855 25.9087C20.8855 25.7423 20.8198 25.5827 20.7028 25.4649C20.5858 25.3472 20.4272 25.2812 20.2618 25.2812L19.5756 25.2812C19.4753 24.8241 19.275 24.3953 18.9893 24.0261L20.2367 24.0261C20.4023 24.0261 20.5608 23.96 20.6778 23.8423C20.7947 23.7245 20.8605 23.5649 20.8605 23.3985C20.8605 23.232 20.7947 23.0725 20.6778 22.9547C20.5608 22.8371 20.4023 22.771 20.2367 22.771L15.2722 22.8086Z" fill="#D7206A"/>
</g>
</g>
</g>
</g>
</g>
</g>
</svg>
