<svg width="20" height="19" viewBox="0 0 20 19" fill="none" xmlns="http://www.w3.org/2000/svg">
<g id="Layer_1" clip-path="url(#clip0_1274_3335)">
<g id="Layer_3">
<path id="Vector" d="M9.74097 -2.20637e-09C4.4942 -9.87812e-10 0.240967 4.25323 0.240967 9.5C0.240967 14.7468 4.4942 19 9.74097 19C14.9877 19 19.241 14.7468 19.241 9.5C19.241 4.25323 14.9877 -3.42494e-09 9.74097 -2.20637e-09ZM14.0951 10.2917L10.5326 10.2917L10.5326 13.8534L8.9493 13.8534L8.9493 10.2917L5.3868 10.2917L5.3868 8.70833L8.9493 8.70833L8.9493 5.14663L10.5326 5.14663L10.5326 8.70833L14.0951 8.70833L14.0951 10.2917Z" fill="#241F20"/>
</g>
</g>
<defs>
<clipPath id="clip0_1274_3335">
<rect width="19" height="19" fill="white" transform="translate(0.240967)"/>
</clipPath>
</defs>
</svg>
