<svg width="51" height="50" viewBox="0 0 51 50" fill="none" xmlns="http://www.w3.org/2000/svg">
<g id="Frame">
<g id="Group">
<path id="Vector" d="M25.1919 44.0474C35.7116 44.0474 44.2395 35.5195 44.2395 24.9998C44.2395 14.4801 35.7116 5.95215 25.1919 5.95215C14.6722 5.95215 6.14429 14.4801 6.14429 24.9998C6.14429 35.5195 14.6722 44.0474 25.1919 44.0474Z" stroke="#66707F" stroke-linecap="round" stroke-linejoin="round"/>
<path id="Vector_2" d="M39.4774 36.9048C37.9024 31.4917 31.8594 29.7021 25.1917 29.7021C18.6977 29.7021 12.6424 31.7707 10.906 36.9048" stroke="#66707F" stroke-linecap="round" stroke-linejoin="round"/>
<path id="Vector_3" fill-rule="evenodd" clip-rule="evenodd" d="M25.1934 10.7139C29.1383 10.7139 32.3363 13.9118 32.3363 17.8567L32.3363 22.6186C32.3363 26.5635 29.1383 29.7615 25.1934 29.7615C21.2485 29.7615 18.0505 26.5635 18.0505 22.6186L18.0505 17.8567C18.0505 13.9118 21.2485 10.7139 25.1934 10.7139Z" stroke="#66707F" stroke-linecap="round" stroke-linejoin="round"/>
</g>
</g>
</svg>
