<svg width="21" height="20" viewBox="0 0 21 20" fill="none" xmlns="http://www.w3.org/2000/svg">
<path d="M16.9738 13.4902L14.1338 13.4902C13.9377 13.4902 13.7788 13.6492 13.7788 13.8452L13.7788 16.6852C13.7788 16.8813 13.9377 17.0402 14.1338 17.0402L16.9738 17.0402C17.1699 17.0402 17.3288 16.8813 17.3288 16.6852L17.3288 13.8452C17.3288 13.6492 17.1699 13.4902 16.9738 13.4902Z" fill="#D7206A"/>
<path d="M13.4235 10.6494L11.2935 10.6494C11.0974 10.6494 10.9385 10.8084 10.9385 11.0044L10.9385 13.1344C10.9385 13.3305 11.0974 13.4894 11.2935 13.4894L13.4235 13.4894C13.6195 13.4894 13.7785 13.3305 13.7785 13.1344L13.7785 11.0044C13.7785 10.8084 13.6195 10.6494 13.4235 10.6494Z" fill="#D7206A"/>
<path d="M19.8136 17.04L17.6836 17.04C17.4876 17.04 17.3286 17.199 17.3286 17.395L17.3286 19.525C17.3286 19.7211 17.4876 19.88 17.6836 19.88L19.8136 19.88C20.0097 19.88 20.1686 19.7211 20.1686 19.525L20.1686 17.395C20.1686 17.199 20.0097 17.04 19.8136 17.04Z" fill="#D7206A"/>
<path d="M19.8136 10.6494L18.3936 10.6494C18.1975 10.6494 18.0386 10.8084 18.0386 11.0044L18.0386 12.4244C18.0386 12.6205 18.1975 12.7794 18.3936 12.7794L19.8136 12.7794C20.0096 12.7794 20.1686 12.6205 20.1686 12.4244L20.1686 11.0044C20.1686 10.8084 20.0096 10.6494 19.8136 10.6494Z" fill="#D7206A"/>
<path d="M12.7135 17.75L11.2935 17.75C11.0974 17.75 10.9385 17.9089 10.9385 18.105L10.9385 19.525C10.9385 19.7211 11.0974 19.88 11.2935 19.88L12.7135 19.88C12.9095 19.88 13.0685 19.7211 13.0685 19.525L13.0685 18.105C13.0685 17.9089 12.9095 17.75 12.7135 17.75Z" fill="#D7206A"/>
<path d="M18.7485 -1.81387e-09L12.3585 -3.29795e-10C11.9819 -2.42327e-10 11.6207 0.149607 11.3544 0.415908C11.0881 0.68221 10.9385 1.04339 10.9385 1.42L10.9385 7.81C10.9385 8.18661 11.0881 8.54779 11.3544 8.81409C11.6207 9.08039 11.9819 9.23 12.3585 9.23L18.7485 9.23C19.1251 9.23 19.4863 9.08039 19.7526 8.81409C20.0189 8.54779 20.1685 8.18661 20.1685 7.81L20.1685 1.42C20.1685 1.04339 20.0189 0.68221 19.7526 0.415908C19.4863 0.149607 19.1251 -1.90134e-09 18.7485 -1.81387e-09ZM17.3285 6.035C17.3285 6.12915 17.2911 6.21945 17.2245 6.28602C17.1579 6.3526 17.0676 6.39 16.9735 6.39L14.1335 6.39C14.0393 6.39 13.949 6.3526 13.8825 6.28602C13.8159 6.21945 13.7785 6.12915 13.7785 6.035L13.7785 3.195C13.7785 3.10085 13.8159 3.01055 13.8825 2.94398C13.949 2.8774 14.0393 2.84 14.1335 2.84L16.9735 2.84C17.0676 2.84 17.1579 2.8774 17.2245 2.94398C17.2911 3.01055 17.3285 3.10085 17.3285 3.195L17.3285 6.035Z" fill="#D7206A"/>
<path d="M8.09857 -1.81387e-09L1.70857 -3.29795e-10C1.33197 -2.42327e-10 0.970784 0.149607 0.704482 0.415908C0.438181 0.68221 0.288574 1.04339 0.288574 1.42L0.288574 7.81C0.288574 8.18661 0.438181 8.54779 0.704482 8.81409C0.970784 9.08039 1.33197 9.23 1.70857 9.23L8.09857 9.23C8.47518 9.23 8.83636 9.08039 9.10266 8.81409C9.36897 8.54779 9.51857 8.18661 9.51857 7.81L9.51857 1.42C9.51857 1.04339 9.36897 0.68221 9.10266 0.415908C8.83636 0.149607 8.47518 -1.90134e-09 8.09857 -1.81387e-09ZM6.67857 6.035C6.67857 6.12915 6.64117 6.21945 6.5746 6.28602C6.50802 6.3526 6.41773 6.39 6.32357 6.39L3.48357 6.39C3.38942 6.39 3.29913 6.3526 3.23255 6.28602C3.16598 6.21945 3.12857 6.12915 3.12857 6.035L3.12857 3.195C3.12857 3.10085 3.16598 3.01055 3.23255 2.94398C3.29913 2.8774 3.38942 2.84 3.48357 2.84L6.32357 2.84C6.41773 2.84 6.50802 2.8774 6.5746 2.94398C6.64117 3.01055 6.67857 3.10085 6.67857 3.195L6.67857 6.035Z" fill="#D7206A"/>
<path d="M8.09857 10.6494L1.70857 10.6494C1.33197 10.6494 0.970784 10.799 0.704482 11.0653C0.438181 11.3316 0.288574 11.6928 0.288574 12.0694L0.288574 18.4594C0.288574 18.836 0.438181 19.1972 0.704482 19.4635C0.970784 19.7298 1.33197 19.8794 1.70857 19.8794L8.09857 19.8794C8.47518 19.8794 8.83636 19.7298 9.10266 19.4635C9.36897 19.1972 9.51857 18.836 9.51857 18.4594L9.51857 12.0694C9.51857 11.6928 9.36897 11.3316 9.10266 11.0653C8.83636 10.799 8.47518 10.6494 8.09857 10.6494ZM6.67857 16.6844C6.67857 16.7786 6.64117 16.8689 6.5746 16.9354C6.50802 17.002 6.41773 17.0394 6.32357 17.0394L3.48357 17.0394C3.38942 17.0394 3.29913 17.002 3.23255 16.9354C3.16598 16.8689 3.12857 16.7786 3.12857 16.6844L3.12857 13.8444C3.12857 13.7503 3.16598 13.66 3.23255 13.5934C3.29913 13.5268 3.38942 13.4894 3.48357 13.4894L6.32357 13.4894C6.41773 13.4894 6.50802 13.5268 6.5746 13.5934C6.64117 13.66 6.67857 13.7503 6.67857 13.8444L6.67857 16.6844Z" fill="#D7206A"/>
</svg>
