<svg width="101" height="100" viewBox="0 0 101 100" fill="none" xmlns="http://www.w3.org/2000/svg">
<g id="referal 1">
<g id="Group">
<path id="Vector" d="M72.1159 12.9139C72.0931 13.5734 71.9139 14.2181 71.593 14.7949C71.2722 15.3716 70.8189 15.8638 70.2706 16.2311C69.9052 16.4991 69.6024 16.8434 69.3834 17.2401C69.1643 17.6368 69.0341 18.0764 69.0018 18.5284C68.9696 18.9804 69.036 19.434 69.1966 19.8578C69.3571 20.2816 69.6079 20.6654 69.9315 20.9826C69.3352 21.3848 68.8615 21.9438 68.5626 22.5981C68.2638 23.2523 68.1514 23.9764 68.2378 24.6904C68.3862 25.6617 68.8826 26.546 69.6346 27.1784C70.3866 27.8108 71.3429 28.1483 72.3253 28.1279L93.7815 28.1279C94.7639 28.1483 95.7202 27.8108 96.4722 27.1784C97.2242 26.546 97.7206 25.6617 97.869 24.6904C97.9558 23.9767 97.8438 23.2528 97.5455 22.5986C97.2472 21.9444 96.7741 21.3852 96.1784 20.9826C96.502 20.6654 96.7528 20.2816 96.9133 19.8578C97.0739 19.434 97.1403 18.9804 97.1081 18.5284C97.0758 18.0764 96.9456 17.6368 96.7265 17.2401C96.5075 16.8434 96.2047 16.4991 95.8393 16.2311C95.2904 15.8642 94.8365 15.3721 94.5151 14.7953C94.1937 14.2186 94.0141 13.5737 93.9909 12.9139L93.9909 12.5029C93.9909 9.60212 92.8386 6.82013 90.7874 4.76895C88.7362 2.71777 85.9542 1.56543 83.0534 1.56543C80.1526 1.56543 77.3706 2.71777 75.3194 4.76895C73.2682 6.82013 72.1159 9.60212 72.1159 12.5029L72.1159 12.9139Z" fill="#F04678"/>
<path id="Vector_2" d="M93.2191 27.0139L86.1785 25.0029L79.9285 25.0029L72.8878 27.0139C71.7272 27.3455 70.6875 28.006 69.8942 28.9158C69.1009 29.8255 68.5881 30.9455 68.4175 32.1404L67.4285 39.0654L98.6785 39.0654L97.6894 32.1404C97.5189 30.9455 97.006 29.8255 96.2127 28.9158C95.4194 28.006 94.3797 27.3455 93.2191 27.0139Z" fill="#678EFA"/>
<path id="Vector_3" d="M83.0535 28.1279C82.2247 28.1279 81.4298 27.7987 80.8438 27.2126C80.2577 26.6266 79.9285 25.8317 79.9285 25.0029L79.9285 14.0654L86.1785 14.0654L86.1785 25.0029C86.1785 25.8317 85.8492 26.6266 85.2632 27.2126C84.6771 27.7987 83.8823 28.1279 83.0535 28.1279Z" fill="#F0B0A1"/>
<path id="Vector_4" d="M83.0535 23.4404C81.3959 23.4404 79.8062 22.7819 78.6341 21.6098C77.4619 20.4377 76.8035 18.848 76.8035 17.1904L76.8035 14.0654C77.794 13.0746 78.9701 12.2886 80.2644 11.7524C81.5588 11.2162 82.9462 10.9403 84.3472 10.9404L89.3035 10.9404L89.3035 17.1904C89.3035 18.848 88.645 20.4377 87.4729 21.6098C86.3008 22.7819 84.7111 23.4404 83.0535 23.4404Z" fill="#F8C3B8"/>
<path id="Vector_5" d="M50.241 68.7529C60.5963 68.7529 68.991 63.1565 68.991 56.2529C68.991 49.3494 60.5963 43.7529 50.241 43.7529C39.8856 43.7529 31.491 49.3494 31.491 56.2529C31.491 63.1565 39.8856 68.7529 50.241 68.7529Z" fill="#FFDC6E"/>
<g id="Group_2">
<path id="Vector_6" d="M50.2423 96.8783C46.3928 96.8739 42.5635 96.3231 38.8688 95.2424C38.6675 95.189 38.4788 95.0959 38.314 94.9685C38.1492 94.8412 38.0115 94.6822 37.909 94.5008C37.8065 94.3195 37.7413 94.1195 37.7173 93.9126C37.6932 93.7057 37.7107 93.496 37.7689 93.296C37.827 93.096 37.9245 92.9096 38.0558 92.7478C38.187 92.5861 38.3492 92.4521 38.5329 92.354C38.7166 92.2558 38.9181 92.1954 39.1255 92.1762C39.333 92.157 39.5421 92.1795 39.7407 92.2424C46.5982 94.2471 53.8863 94.2471 60.7438 92.2424C61.1382 92.1378 61.5578 92.1917 61.913 92.3924C62.2682 92.5931 62.5308 92.9248 62.6447 93.3166C62.7586 93.7084 62.7147 94.1292 62.5224 94.4891C62.3301 94.8489 62.0047 95.1193 61.6157 95.2424C57.9211 96.3231 54.0917 96.8739 50.2423 96.8783ZM11.2423 56.2533L11.1798 56.2533C10.9745 56.2453 10.7729 56.1968 10.5864 56.1108C10.3999 56.0247 10.2322 55.9028 10.0928 55.7518C9.95352 55.6009 9.84532 55.424 9.77444 55.2312C9.70357 55.0384 9.67139 54.8335 9.67977 54.6283C9.80276 51.3274 10.3275 48.0538 11.2423 44.8799C11.2957 44.6785 11.3888 44.4899 11.5161 44.3251C11.6435 44.1602 11.8025 44.0225 11.9838 43.92C12.1652 43.8176 12.3652 43.7524 12.5721 43.7283C12.779 43.7042 12.9886 43.7218 13.1886 43.7799C13.3887 43.8381 13.575 43.9356 13.7368 44.0668C13.8986 44.198 14.0325 44.3603 14.1307 44.544C14.2288 44.7277 14.2893 44.9292 14.3084 45.1366C14.3276 45.344 14.3051 45.5532 14.2423 45.7518C13.3988 48.6828 12.9145 51.7055 12.8001 54.7533C12.784 55.156 12.6129 55.5368 12.3226 55.8164C12.0323 56.0959 11.6453 56.2524 11.2423 56.2533ZM61.1798 20.3486C61.0317 20.3493 60.8842 20.3283 60.7423 20.2861C53.8896 18.259 46.5978 18.2508 39.7407 20.2627C39.3463 20.3673 38.9267 20.3134 38.5715 20.1127C38.2163 19.9119 37.9537 19.5802 37.8398 19.1884C37.726 18.7966 37.7699 18.3759 37.9621 18.016C38.1544 17.6562 38.4798 17.3858 38.8688 17.2627C46.2965 15.085 54.1944 15.0936 61.6173 17.2877C61.9771 17.394 62.2866 17.6263 62.4893 17.942C62.692 18.2577 62.7743 18.6358 62.7213 19.0072C62.6682 19.3786 62.4832 19.7185 62.2002 19.9648C61.9171 20.2111 61.555 20.3474 61.1798 20.3486ZM89.2641 56.2533C88.8601 56.2536 88.4716 56.0974 88.1803 55.8174C87.8889 55.5374 87.7174 55.1555 87.7016 54.7518C87.5814 51.7039 87.0897 48.6821 86.2376 45.7533C86.1215 45.3555 86.1683 44.9279 86.3676 44.5645C86.5668 44.2012 86.9023 43.9319 87.3001 43.8158C87.6979 43.6998 88.1255 43.7465 88.4889 43.9458C88.8522 44.1451 89.1215 44.4805 89.2376 44.8783C90.1616 48.0521 90.6942 51.3269 90.8235 54.6299C90.84 55.0436 90.6916 55.4469 90.411 55.7513C90.1303 56.0557 89.7403 56.2363 89.3266 56.2533L89.2641 56.2533ZM42.4298 57.8158L39.3048 57.8158C38.8904 57.8158 38.4929 57.6512 38.1999 57.3582C37.9069 57.0651 37.7423 56.6677 37.7423 56.2533C37.7423 55.8389 37.9069 55.4415 38.1999 55.1485C38.4929 54.8554 38.8904 54.6908 39.3048 54.6908L42.4298 54.6908C42.8442 54.6908 43.2416 54.8554 43.5346 55.1485C43.8276 55.4415 43.9923 55.8389 43.9923 56.2533C43.9923 56.6677 43.8276 57.0651 43.5346 57.3582C43.2416 57.6512 42.8442 57.8158 42.4298 57.8158ZM61.1798 57.8158L58.0548 57.8158C57.6404 57.8158 57.2429 57.6512 56.9499 57.3582C56.6569 57.0651 56.4923 56.6677 56.4923 56.2533C56.4923 55.8389 56.6569 55.4415 56.9499 55.1485C57.2429 54.8554 57.6404 54.6908 58.0548 54.6908L61.1798 54.6908C61.5942 54.6908 61.9916 54.8554 62.2846 55.1485C62.5776 55.4415 62.7423 55.8389 62.7423 56.2533C62.7423 56.6677 62.5776 57.0651 62.2846 57.3582C61.9916 57.6512 61.5942 57.8158 61.1798 57.8158ZM51.8048 57.8158L48.6798 57.8158C48.2654 57.8158 47.8679 57.6512 47.5749 57.3582C47.2819 57.0651 47.1173 56.6677 47.1173 56.2533C47.1173 55.8389 47.2819 55.4415 47.5749 55.1485C47.8679 54.8554 48.2654 54.6908 48.6798 54.6908L51.8048 54.6908C52.2192 54.6908 52.6166 54.8554 52.9096 55.1485C53.2026 55.4415 53.3673 55.8389 53.3673 56.2533C53.3673 56.6677 53.2026 57.0651 52.9096 57.3582C52.6166 57.6512 52.2192 57.8158 51.8048 57.8158Z" fill="#646E82"/>
</g>
<path id="Vector_7" d="M83.0535 76.5654L78.366 76.5654C76.7084 76.5654 75.1187 75.9069 73.9466 74.7348C72.7744 73.5627 72.116 71.973 72.116 70.3154L72.116 68.7529C72.116 66.6809 72.9391 64.6938 74.4042 63.2287C75.8693 61.7635 77.8565 60.9404 79.9285 60.9404L83.0535 60.9404" fill="#B47864"/>
<path id="Vector_8" d="M81.491 60.9404L90.916 60.9404C91.2172 60.9404 91.5155 60.9998 91.7937 61.115C92.072 61.2303 92.3249 61.3993 92.5379 61.6123C92.7509 61.8252 92.9198 62.0781 93.0351 62.3564C93.1504 62.6347 93.2097 62.933 93.2097 63.2342C93.2103 63.7709 93.0223 64.2908 92.6785 64.7029L89.3035 68.7529L81.491 68.7529" fill="#B47864"/>
<path id="Vector_9" d="M27.5941 27.0139L20.5535 25.0029L14.3035 25.0029L7.26284 27.0139C6.10225 27.3455 5.06251 28.006 4.26922 28.9158C3.47594 29.8255 2.96305 30.9455 2.79253 32.1404L1.80347 39.0654L33.0535 39.0654L32.0644 32.1404C31.8939 30.9455 31.381 29.8255 30.5877 28.9158C29.7944 28.006 28.7547 27.3455 27.5941 27.0139Z" fill="#678EFA"/>
<path id="Vector_10" d="M17.4285 17.1904L12.741 17.1904C11.0834 17.1904 9.49365 16.5319 8.32155 15.3598C7.14945 14.1877 6.49097 12.598 6.49097 10.9404L6.49097 9.37793C6.49097 7.30593 7.31407 5.31879 8.7792 3.85366C10.2443 2.38853 12.2315 1.56543 14.3035 1.56543L17.4285 1.56543" fill="#B47864"/>
<path id="Vector_11" d="M17.4285 28.1279C16.5997 28.1279 15.8048 27.7987 15.2188 27.2126C14.6327 26.6266 14.3035 25.8317 14.3035 25.0029L14.3035 21.8779L20.5535 21.8779L20.5535 25.0029C20.5535 25.8317 20.2242 26.6266 19.6382 27.2126C19.0521 27.7987 18.2573 28.1279 17.4285 28.1279Z" fill="#F0B0A1"/>
<path id="Vector_12" d="M17.4285 23.4404C15.7709 23.4404 14.1812 22.7819 13.009 21.6098C11.8369 20.4377 11.1785 18.848 11.1785 17.1904L11.1785 12.5029C11.1785 11.6741 11.5077 10.8793 12.0938 10.2932C12.6798 9.70717 13.4747 9.37793 14.3035 9.37793L23.6785 9.37793L23.6785 17.1904C23.6785 18.848 23.02 20.4377 21.8479 21.6098C20.6758 22.7819 19.0861 23.4404 17.4285 23.4404Z" fill="#F8C3B8"/>
<path id="Vector_13" d="M15.866 1.56543L23.6785 1.56543C24.7145 1.56543 25.708 1.97698 26.4406 2.70954C27.1732 3.44211 27.5847 4.43568 27.5847 5.47168C27.5847 5.98466 27.4837 6.49261 27.2874 6.96654C27.0911 7.44046 26.8033 7.87109 26.4406 8.23382C26.0779 8.59654 25.6473 8.88428 25.1733 9.08058C24.6994 9.27689 24.1914 9.37793 23.6785 9.37793L15.866 9.37793" fill="#B47864"/>
<path id="Vector_14" d="M28.366 76.1967L28.366 71.8779C28.366 68.9771 27.2136 66.1951 25.1624 64.1439C23.1113 62.0928 20.3293 60.9404 17.4285 60.9404C14.5277 60.9404 11.7457 62.0928 9.69449 64.1439C7.64331 66.1951 6.49097 68.9771 6.49097 71.8779L6.49097 76.1967C6.49095 77.2465 6.19859 78.2756 5.64665 79.1687C5.0947 80.0617 4.30498 80.7834 3.36597 81.2529C3.36597 82.4961 3.85983 83.6884 4.7389 84.5675C5.61798 85.4466 6.81026 85.9404 8.05347 85.9404L26.8035 85.9404C28.0467 85.9404 29.239 85.4466 30.118 84.5675C30.9971 83.6884 31.491 82.4961 31.491 81.2529C30.552 80.7834 29.7622 80.0617 29.2103 79.1687C28.6583 78.2756 28.366 77.2465 28.366 76.1967Z" fill="#FFDC6E"/>
<path id="Vector_15" d="M27.5941 86.3889L20.5535 84.3779L14.3035 84.3779L7.26284 86.3889C6.10225 86.7205 5.06251 87.381 4.26922 88.2908C3.47594 89.2005 2.96305 90.3205 2.79253 91.5154L1.80347 98.4404L33.0535 98.4404L32.0644 91.5154C31.8939 90.3205 31.381 89.2005 30.5877 88.2908C29.7944 87.381 28.7547 86.7205 27.5941 86.3889Z" fill="#F04678"/>
<path id="Vector_16" d="M17.4285 87.5029C16.5997 87.5029 15.8048 87.1737 15.2188 86.5876C14.6327 86.0016 14.3035 85.2067 14.3035 84.3779L14.3035 81.2529L20.5535 81.2529L20.5535 84.3779C20.5535 85.2067 20.2242 86.0016 19.6382 86.5876C19.0521 87.1737 18.2573 87.5029 17.4285 87.5029Z" fill="#F0B0A1"/>
<path id="Vector_17" d="M17.4285 82.8154C15.7709 82.8154 14.1812 82.1569 13.009 80.9848C11.8369 79.8127 11.1785 78.223 11.1785 76.5654L11.1785 73.8092C11.1785 73.2287 11.3402 72.6597 11.6454 72.166C11.9506 71.6723 12.3874 71.2733 12.9066 71.0139L17.4285 68.7529L21.9503 71.0139C22.4696 71.2733 22.9063 71.6723 23.2115 72.166C23.5168 72.6597 23.6784 73.2287 23.6785 73.8092L23.6785 76.5654C23.6785 78.223 23.02 79.8127 21.8479 80.9848C20.6758 82.1569 19.0861 82.8154 17.4285 82.8154Z" fill="#F8C3B8"/>
<path id="Vector_18" d="M93.2191 86.3889L86.1785 84.3779L79.9285 84.3779L72.8878 86.3889C71.7272 86.7205 70.6875 87.381 69.8942 88.2908C69.1009 89.2005 68.5881 90.3205 68.4175 91.5154L67.4285 98.4404L98.6785 98.4404L97.6894 91.5154C97.5189 90.3205 97.006 89.2005 96.2127 88.2908C95.4194 87.381 94.3797 86.7205 93.2191 86.3889Z" fill="#58EFC7"/>
<path id="Vector_19" d="M83.0535 87.5029C82.2247 87.5029 81.4298 87.1737 80.8438 86.5876C80.2577 86.0016 79.9285 85.2067 79.9285 84.3779L79.9285 81.2529L86.1785 81.2529L86.1785 84.3779C86.1785 85.2067 85.8492 86.0016 85.2632 86.5876C84.6771 87.1737 83.8823 87.5029 83.0535 87.5029Z" fill="#F0B0A1"/>
<path id="Vector_20" d="M83.0535 82.8154C81.3959 82.8154 79.8062 82.1569 78.6341 80.9848C77.4619 79.8127 76.8035 78.223 76.8035 76.5654L76.8035 71.8779C76.8035 71.0491 77.1327 70.2543 77.7188 69.6682C78.3048 69.0822 79.0997 68.7529 79.9285 68.7529L89.3035 68.7529L89.3035 76.5654C89.3035 78.223 88.645 79.8127 87.4729 80.9848C86.3008 82.1569 84.7111 82.8154 83.0535 82.8154Z" fill="#F8C3B8"/>
</g>
</g>
</svg>
