<svg width="23" height="22" viewBox="0 0 23 22" fill="none" xmlns="http://www.w3.org/2000/svg">
<g id="Group 406">
<path id="Vector" d="M10.1303 0.748748C5.09163 0.72818 0.971838 4.51538 0.952774 9.18538C0.933711 13.8554 5.02245 17.6761 10.0611 17.6967C12.2523 17.7056 14.2674 16.9927 15.8494 15.802L21.2877 20.8839C21.3716 20.9655 21.4723 21.0309 21.5838 21.0761C21.6952 21.1212 21.8153 21.1454 21.9369 21.147C22.0586 21.1487 22.1793 21.1278 22.2921 21.0856C22.4049 21.0435 22.5075 20.9809 22.5938 20.9015C22.6802 20.8221 22.7485 20.7276 22.7949 20.6234C22.8414 20.5192 22.8649 20.4075 22.8641 20.2947C22.8633 20.182 22.8383 20.0705 22.7904 19.9668C22.7426 19.8631 22.6729 19.7693 22.5855 19.6909L17.1471 14.609C18.4447 13.1527 19.2304 11.2908 19.2387 9.26003C19.2577 4.59003 15.169 0.769317 10.1303 0.748748ZM10.1234 2.44354C14.1738 2.46007 17.4254 5.4985 17.4101 9.25256C17.3948 13.0066 14.1185 16.0184 10.0681 16.0019C6.01761 15.9853 2.76604 12.9469 2.78136 9.19285C2.79669 5.43878 6.07296 2.42701 10.1234 2.44354Z" fill="white"/>
</g>
</svg>
