<svg width="41" height="41" viewBox="0 0 41 41" fill="none" xmlns="http://www.w3.org/2000/svg">
<g id="Group 391">
<circle id="Ellipse 93" cx="20.9988" cy="20.0811" r="20" fill="#D7206A"/>
<g id="Group 389">
<path id="Vector" d="M26.9988 19.5107C27.1132 19.2122 27.1774 18.8857 27.1774 18.5453C27.1774 17.0665 25.9776 15.8668 24.4988 15.8668C23.9491 15.8668 23.4357 16.0342 23.0116 16.3188C22.2387 14.9795 20.7962 14.0811 19.1416 14.0811C16.6751 14.0811 14.6774 16.0788 14.6774 18.5453C14.6774 18.6207 14.6801 18.696 14.6829 18.7713C13.1204 19.321 11.9988 20.811 11.9988 22.5632C11.9988 24.7814 13.7984 26.5811 16.0166 26.5811L26.2845 26.5811C28.2572 26.5811 29.8559 24.9823 29.8559 23.0096C29.8559 21.2825 28.6282 19.84 26.9988 19.5107ZM22.9753 21.2239L21.1506 21.2239L21.1506 24.3489C21.1506 24.5944 20.9497 24.7953 20.7041 24.7953L19.3649 24.7953C19.1193 24.7953 18.9184 24.5944 18.9184 24.3489L18.9184 21.2239L17.0936 21.2239C16.6947 21.2239 16.4965 20.744 16.7784 20.4622L19.7192 17.5213C19.8922 17.3484 20.1768 17.3484 20.3498 17.5213L23.2906 20.4622C23.5724 20.744 23.3715 21.2239 22.9753 21.2239Z" fill="white"/>
</g>
</g>
</svg>
