<svg width="30" height="30" viewBox="0 0 30 30" fill="none" xmlns="http://www.w3.org/2000/svg">
<g id="Group 391">
<circle id="Ellipse 93" cx="14.999" cy="15" r="15" fill="#D7206A"/>
<g id="Group 389">
<path id="Vector" d="M19.499 14.5723C19.5848 14.3484 19.633 14.1035 19.633 13.8482C19.633 12.7391 18.7331 11.8393 17.624 11.8393C17.2118 11.8393 16.8267 11.9648 16.5086 12.1783C15.929 11.1738 14.8471 10.5 13.6062 10.5C11.7563 10.5 10.258 11.9983 10.258 13.8482C10.258 13.9047 10.26 13.9612 10.2621 14.0177C9.09026 14.43 8.24902 15.5474 8.24902 16.8616C8.24902 18.5253 9.59877 19.875 11.2624 19.875L18.9633 19.875C20.4428 19.875 21.6419 18.6759 21.6419 17.1964C21.6419 15.9011 20.7211 14.8192 19.499 14.5723ZM16.4814 15.8571L15.1129 15.8571L15.1129 18.2009C15.1129 18.385 14.9622 18.5357 14.778 18.5357L13.7736 18.5357C13.5894 18.5357 13.4388 18.385 13.4388 18.2009L13.4388 15.8571L12.0702 15.8571C11.7709 15.8571 11.6223 15.4972 11.8337 15.2859L14.0393 13.0802C14.1691 12.9505 14.3825 12.9505 14.5123 13.0802L16.7179 15.2859C16.9293 15.4972 16.7786 15.8571 16.4814 15.8571Z" fill="white"/>
</g>
</g>
</svg>
