<svg width="33" height="33" viewBox="0 0 33 33" fill="none" xmlns="http://www.w3.org/2000/svg">
<g id="Layer_1">
<g id="Group">
<g id="Icon-Arrow-Left">
<path id="Fill-25" d="M16.7925 28.1588C10.1925 28.1588 4.84253 22.8088 4.84253 16.2088C4.84253 9.60879 10.1925 4.25879 16.7925 4.25879C23.3925 4.25879 28.7425 9.60879 28.7425 16.2088C28.7425 22.8088 23.3925 28.1588 16.7925 28.1588ZM16.7925 5.55879C10.9425 5.55879 6.14253 10.3588 6.14253 16.2088C6.14253 22.0588 10.9425 26.8588 16.7925 26.8588C22.6425 26.8588 27.4425 22.0588 27.4425 16.2088C27.4425 10.3588 22.6425 5.55879 16.7925 5.55879Z" fill="#D7206A"/>
<path id="Fill-26" d="M16.5433 23.0584L15.6433 22.1084L21.4933 16.2084L15.6433 10.3084L16.5433 9.3584L23.3933 16.2084L16.5433 23.0584Z" fill="#D7206A"/>
<path id="Fill-27" d="M22.4441 16.9088L10.4441 16.9088L10.4441 15.5088L22.4441 15.5088L22.4441 16.9088Z" fill="#D7206A"/>
</g>
</g>
</g>
</svg>
